<svg width="13" height="14" viewBox="0 0 13 14" fill="none" xmlns="http://www.w3.org/2000/svg">
<path fill-rule="evenodd" clip-rule="evenodd" d="M2.64853 0.292886C2.258 -0.0976387 1.62484 -0.0976387 1.23431 0.292886C0.84379 0.68341 0.84379 1.31657 1.23431 1.7071L6.23431 6.7071C6.62484 7.09762 7.258 7.09762 7.64853 6.7071L12.6485 1.7071C13.0391 1.31657 13.0391 0.68341 12.6485 0.292886C12.258 -0.0976387 11.6248 -0.0976387 11.2343 0.292886L6.94142 4.58578L2.64853 0.292886ZM2.64853 7.29289C2.258 6.90236 1.62484 6.90236 1.23431 7.29289C0.84379 7.68341 0.84379 8.31658 1.23431 8.7071L6.23431 13.7071C6.62484 14.0976 7.258 14.0976 7.64853 13.7071L12.6485 8.7071C13.0391 8.31658 13.0391 7.68341 12.6485 7.29289C12.258 6.90236 11.6248 6.90236 11.2343 7.29289L6.94142 11.5858L2.64853 7.29289Z" fill="white"/>
</svg>
