<svg width="18" height="15" viewBox="0 0 18 15" fill="none" xmlns="http://www.w3.org/2000/svg">
<path fill-rule="evenodd" clip-rule="evenodd" d="M5.3981 13.2721C6.5381 13.7437 7.76536 13.99 9.01158 13.99C10.9102 13.99 12.7649 13.4183 14.334 12.3493C15.9031 11.2803 17.1139 9.76359 17.8088 7.99669C17.174 6.38423 16.1098 4.98009 14.7361 3.93413L13.5954 5.07484C14.6446 5.82881 15.494 6.83174 16.065 7.99669C15.4228 9.31968 14.4201 10.4344 13.1723 11.2126C11.9244 11.9908 10.4822 12.4007 9.01158 12.3953V12.4109C8.19816 12.4131 7.39356 12.2883 6.62584 12.0444L5.3981 13.2721ZM4.33953 10.8749C3.32702 10.1241 2.50871 9.13734 1.95818 7.99669C2.60486 6.67728 3.60864 5.56571 4.85548 4.78827C6.10232 4.01084 7.54222 3.5987 9.01158 3.5987C9.78404 3.5987 10.5484 3.71261 11.2808 3.93361L12.5319 2.68249C11.4184 2.23504 10.224 2.00108 9.01158 2C7.11287 2.00169 5.25858 2.57447 3.68971 3.64391C2.12083 4.71335 0.909919 6.22998 0.214355 7.99669C0.837108 9.58016 1.87425 10.9627 3.21227 12.0021L4.33953 10.8749ZM7.43875 11.2315C7.71398 11.3653 8.00662 11.4642 8.31 11.5245C9.00775 11.6633 9.73098 11.5921 10.3882 11.3198C11.0455 11.0476 11.6073 10.5866 12.0025 9.99505C12.3977 9.40353 12.6087 8.70809 12.6087 7.99668C12.6079 7.44686 12.4814 6.91016 12.2452 6.42499L10.9861 7.68416C11.0023 7.78709 11.0106 7.89157 11.0106 7.99668C11.0106 8.52681 10.8 9.03524 10.4252 9.41011C10.0503 9.78497 9.54188 9.99557 9.01174 9.99557C8.90663 9.99557 8.80216 9.98728 8.69923 9.97099L7.43875 11.2315ZM7.0224 8.19197L5.73471 9.47967C5.62214 9.23094 5.53769 8.96895 5.48388 8.69841C5.34509 8.00067 5.41632 7.27743 5.68857 6.62017C5.96081 5.96291 6.42185 5.40114 7.01337 5.0059C7.60489 4.61066 8.30032 4.3997 9.01174 4.3997C9.52779 4.40045 10.0323 4.51191 10.4935 4.72091L9.20704 6.00734C9.01264 5.98826 8.81544 5.99766 8.62177 6.03619C8.23402 6.11332 7.87785 6.30369 7.5983 6.58324C7.31875 6.86279 7.12838 7.21896 7.05125 7.60671C7.01273 7.80037 7.00332 7.99757 7.0224 8.19197Z" fill="white"/>
<path d="M2.21436 14.0208L15.2676 0.967554L15.9747 1.67466L2.92146 14.7279L2.21436 14.0208Z" fill="white"/>
</svg>
