<svg width="19" height="12" viewBox="0 0 19 12" fill="none" xmlns="http://www.w3.org/2000/svg">
<path d="M9.41729 2.39972C8.70587 2.39972 8.01043 2.61068 7.41891 3.00592C6.8274 3.40116 6.36636 3.96293 6.09412 4.62019C5.82187 5.27745 5.75064 6.00068 5.88943 6.69842C6.02822 7.39617 6.3708 8.03709 6.87384 8.54013C7.37689 9.04318 8.01781 9.38576 8.71555 9.52455C9.4133 9.66334 10.1365 9.5921 10.7938 9.31986C11.451 9.04761 12.0128 8.58658 12.4081 7.99506C12.8033 7.40354 13.0143 6.7081 13.0143 5.99669C13.0129 5.04314 12.6335 4.12903 11.9592 3.45477C11.2849 2.7805 10.3708 2.4011 9.41729 2.39972V2.39972ZM9.41729 7.99559C9.02194 7.99559 8.63547 7.87835 8.30676 7.65871C7.97804 7.43907 7.72184 7.12689 7.57055 6.76163C7.41925 6.39638 7.37967 5.99447 7.4568 5.60672C7.53393 5.21898 7.7243 4.86281 8.00385 4.58326C8.2834 4.30371 8.63957 4.11333 9.02732 4.0362C9.41507 3.95907 9.81698 3.99866 10.1822 4.14995C10.5475 4.30124 10.8597 4.55745 11.0793 4.88616C11.2989 5.21488 11.4162 5.60135 11.4162 5.99669C11.4162 6.52683 11.2056 7.03526 10.8307 7.41012C10.4559 7.78499 9.94743 7.99559 9.41729 7.99559Z" fill="white"/>
<path d="M9.41709 0C7.51839 0.00168905 5.6641 0.574474 4.09523 1.64391C2.52635 2.71335 1.31544 4.22998 0.619873 5.99668C1.31476 7.76359 2.52561 9.2803 4.09471 10.3493C5.66382 11.4183 7.51846 11.99 9.41709 11.99C11.3157 11.99 13.1704 11.4183 14.7395 10.3493C16.3086 9.2803 17.5194 7.76359 18.2143 5.99668C17.5188 4.22998 16.3078 2.71335 14.739 1.64391C13.1701 0.574474 11.3158 0.00168905 9.41709 0V0ZM9.41709 10.4109C7.94483 10.4149 6.50143 10.0027 5.25342 9.22161C4.00541 8.44057 3.00364 7.3226 2.3637 5.99668C3.01037 4.67728 4.01416 3.56571 5.261 2.78827C6.50783 2.01084 7.94773 1.5987 9.41709 1.5987C10.8865 1.5987 12.3264 2.01084 13.5732 2.78827C14.82 3.56571 15.8238 4.67728 16.4705 5.99668C15.8283 7.31968 14.8256 8.43443 13.5778 9.21261C12.3299 9.99078 10.8877 10.4007 9.41709 10.3953V10.4109Z" fill="white"/>
</svg>
