<svg width="10" height="9" viewBox="0 0 10 9" fill="none" xmlns="http://www.w3.org/2000/svg">
<path fill-rule="evenodd" clip-rule="evenodd" d="M4.35355 0.646447C4.15829 0.451184 3.84171 0.451184 3.64645 0.646447L0.146447 4.14645C-0.0488157 4.34171 -0.0488157 4.65829 0.146447 4.85355L3.64645 8.35355C3.84171 8.54882 4.15829 8.54882 4.35355 8.35355C4.54882 8.15829 4.54882 7.84171 4.35355 7.64645L1.20711 4.5L4.35355 1.35355C4.54882 1.15829 4.54882 0.841709 4.35355 0.646447Z" fill="#767C8F"/>
<path fill-rule="evenodd" clip-rule="evenodd" d="M10 4.5C10 4.22386 9.79746 4 9.54762 4H0.952381C0.702538 4 0.5 4.22386 0.5 4.5C0.5 4.77614 0.702538 5 0.952381 5H9.54762C9.79746 5 10 4.77614 10 4.5Z" fill="#767C8F"/>
</svg>
