<svg width="17" height="20" viewBox="0 0 17 20" fill="none" xmlns="http://www.w3.org/2000/svg">
<path fill-rule="evenodd" clip-rule="evenodd" d="M1.2343 8.70711C0.843775 8.31658 0.843775 7.68342 1.2343 7.29289L8.2343 0.292893C8.62482 -0.0976318 9.25799 -0.0976318 9.64851 0.292893L16.6485 7.29289C17.039 7.68342 17.039 8.31658 16.6485 8.70711C16.258 9.09763 15.6248 9.09763 15.2343 8.70711L8.94141 2.41421L2.64851 8.70711C2.25799 9.09763 1.62482 9.09763 1.2343 8.70711Z" fill="currentColor"/>
<path fill-rule="evenodd" clip-rule="evenodd" d="M8.94141 20C8.38912 20 7.94141 19.5949 7.94141 19.0952L7.94141 1.90476C7.94141 1.40508 8.38912 1 8.94141 1C9.49369 1 9.94141 1.40508 9.94141 1.90476L9.94141 19.0952C9.94141 19.5949 9.49369 20 8.94141 20Z" fill="currentColor"/>
</svg>
