<svg width="21" height="21" viewBox="0 0 21 21" fill="none" xmlns="http://www.w3.org/2000/svg">
<path fill-rule="evenodd" clip-rule="evenodd" d="M14.9604 1.61304C14.2972 1.47316 13.6096 1.46226 12.9358 1.58504C11.8858 1.77634 10.9192 2.28306 10.1645 3.03769C9.40989 3.79232 8.90316 4.75901 8.71187 5.80894C8.52057 6.85886 8.65378 7.94215 9.09377 8.91444C9.22247 9.19885 9.16154 9.53323 8.9408 9.75397L2.0308 16.664C1.77363 16.9211 1.62915 17.2699 1.62915 17.6336C1.62915 17.9973 1.77363 18.3461 2.0308 18.6033C2.28797 18.8605 2.63677 19.005 3.00047 19.005C3.36417 19.005 3.71297 18.8605 3.97014 18.6033L10.8801 11.6933C11.1009 11.4726 11.4353 11.4116 11.7197 11.5403C12.692 11.9803 13.7753 12.1135 14.8252 11.9222C15.8751 11.731 16.8418 11.2242 17.5964 10.4696C18.351 9.71496 18.8578 8.74827 19.0491 7.69835C19.1719 7.02449 19.161 6.33688 19.0211 5.6737L16.1055 8.58928C15.7784 8.90992 15.3385 9.0895 14.8805 9.0895C14.4224 9.0895 13.9826 8.9099 13.6555 8.58925L13.6501 8.584L12.0448 6.97867C11.7242 6.65154 11.5446 6.21171 11.5446 5.75364C11.5446 5.29557 11.7242 4.85577 12.0449 4.52864L12.0501 4.52329L14.9604 1.61304ZM12.6669 0.109332C14.0168 -0.136623 15.4096 0.0346575 16.6597 0.600347C16.884 0.701852 17.0442 0.906984 17.0883 1.1492C17.1325 1.39142 17.0549 1.63988 16.8808 1.81397L13.1144 5.58042C13.0696 5.62697 13.0446 5.68903 13.0446 5.75364C13.0446 5.81825 13.0696 5.88031 13.1143 5.92685L14.7073 7.51979C14.7538 7.5645 14.8159 7.5895 14.8805 7.5895C14.9451 7.5895 15.0071 7.5645 15.0537 7.5198L18.8201 3.75331C18.9942 3.57922 19.2427 3.50166 19.4849 3.54579C19.7271 3.58992 19.9323 3.75013 20.0338 3.97444C20.5995 5.22453 20.7707 6.61733 20.5248 7.96723C20.2788 9.31713 19.6273 10.56 18.6571 11.5303C17.6868 12.5005 16.444 13.152 15.0941 13.398C13.9175 13.6123 12.7083 13.5097 11.5895 13.1053L5.0308 19.664C4.49232 20.2024 3.76199 20.505 3.00047 20.505C2.23895 20.505 1.50862 20.2024 0.970141 19.664C0.431664 19.1255 0.12915 18.3952 0.12915 17.6336C0.12915 16.8721 0.431664 16.1418 0.970141 15.6033L7.52882 9.04463C7.12438 7.92578 7.02179 6.71663 7.23616 5.54006C7.48212 4.19016 8.13362 2.94727 9.10386 1.97703C10.0741 1.0068 11.317 0.355287 12.6669 0.109332Z" fill="#E2E4EE"/>
</svg>
