<svg width="21" height="20" viewBox="0 0 21 20" fill="none" xmlns="http://www.w3.org/2000/svg">
<g clip-path="url(#clip0_307_12339)">
<path fill-rule="evenodd" clip-rule="evenodd" d="M3.61987 5C3.35466 5 3.1003 5.10536 2.91277 5.29289C2.72523 5.48043 2.61987 5.73478 2.61987 6V17C2.61987 17.2652 2.72523 17.5196 2.91277 17.7071C3.1003 17.8946 3.35466 18 3.61987 18H14.6199C14.8851 18 15.1394 17.8946 15.327 17.7071C15.5145 17.5196 15.6199 17.2652 15.6199 17V11C15.6199 10.4477 16.0676 10 16.6199 10C17.1722 10 17.6199 10.4477 17.6199 11V17C17.6199 17.7957 17.3038 18.5587 16.7412 19.1213C16.1786 19.6839 15.4155 20 14.6199 20H3.61987C2.82422 20 2.06116 19.6839 1.49855 19.1213C0.935944 18.5587 0.619873 17.7956 0.619873 17V6C0.619873 5.20435 0.935943 4.44129 1.49855 3.87868C2.06116 3.31607 2.82422 3 3.61987 3H9.61987C10.1722 3 10.6199 3.44772 10.6199 4C10.6199 4.55228 10.1722 5 9.61987 5H3.61987Z" fill="currentColor"/>
<path fill-rule="evenodd" clip-rule="evenodd" d="M12.6199 1C12.6199 0.447715 13.0676 0 13.6199 0H19.6199C20.1722 0 20.6199 0.447715 20.6199 1V7C20.6199 7.55228 20.1722 8 19.6199 8C19.0676 8 18.6199 7.55228 18.6199 7V2H13.6199C13.0676 2 12.6199 1.55228 12.6199 1Z" fill="currentColor"/>
<path fill-rule="evenodd" clip-rule="evenodd" d="M20.327 0.292893C20.7175 0.683417 20.7175 1.31658 20.327 1.70711L9.32698 12.7071C8.93646 13.0976 8.30329 13.0976 7.91277 12.7071C7.52224 12.3166 7.52224 11.6834 7.91277 11.2929L18.9128 0.292893C19.3033 -0.0976311 19.9365 -0.0976311 20.327 0.292893Z" fill="currentColor"/>
</g>
<defs>
<clipPath id="clip0_307_12339">
<rect width="20" height="20" fill="white" transform="translate(0.619873)"/>
</clipPath>
</defs>
</svg>
