<svg width="23" height="22" viewBox="0 0 23 22" fill="none" xmlns="http://www.w3.org/2000/svg">
<mask id="path-1-inside-1_3654_6973" fill="white">
<path d="M12.4754 0C11.6242 0 10.8867 0.500519 10.5233 1.2166C10.2278 1.06738 9.89962 0.975568 9.54872 0.975568C8.34512 0.975568 7.35369 1.96699 7.35369 3.1706V12.186C6.63778 11.7781 5.74815 11.2632 5.11675 10.9885C4.7611 10.8337 4.36629 10.7313 3.94683 10.7313C2.94605 10.7313 2.23157 11.2501 1.89375 11.7573C1.55594 12.2645 1.5041 12.7853 1.5041 12.7853C1.49185 12.9005 1.50715 13.017 1.54872 13.1251C1.59029 13.2333 1.65696 13.33 1.74323 13.4074C1.74323 13.4074 5.81251 17.0711 6.95928 18.2843C7.9225 19.303 9.23879 20.0283 10.7301 19.9991H14.8829C17.9759 20.0272 20.4959 17.5069 20.5239 14.4211C20.5239 14.4188 20.5239 14.4166 20.5239 14.4144V5.12173C20.5239 3.91813 19.5324 2.9267 18.3288 2.9267C18.0678 2.9267 17.8198 2.98046 17.5867 3.0658C17.5301 1.91093 16.5699 0.975568 15.4021 0.975568C15.0462 0.975568 14.7224 1.08237 14.4237 1.23566C14.0626 0.513134 13.3314 0 12.4754 0ZM12.4754 1.46335C12.8883 1.46335 13.2071 1.78212 13.2071 2.19503V3.1706V9.51179C13.2057 9.60875 13.2236 9.70501 13.2598 9.79498C13.296 9.88495 13.3496 9.96684 13.4177 10.0359C13.4858 10.1049 13.5669 10.1598 13.6564 10.1972C13.7458 10.2346 13.8418 10.2539 13.9388 10.2539C14.0357 10.2539 14.1317 10.2346 14.2212 10.1972C14.3106 10.1598 14.3918 10.1049 14.4599 10.0359C14.5279 9.96684 14.5816 9.88495 14.6178 9.79498C14.6539 9.70501 14.6718 9.60875 14.6705 9.51179V3.1706C14.6705 2.75769 14.9892 2.43892 15.4021 2.43892C15.815 2.43892 16.1338 2.75769 16.1338 3.1706V5.12173V9.99957C16.1324 10.0965 16.1504 10.1928 16.1865 10.2828C16.2227 10.3727 16.2763 10.4546 16.3444 10.5237C16.4125 10.5927 16.4936 10.6476 16.5831 10.685C16.6725 10.7224 16.7685 10.7417 16.8655 10.7417C16.9625 10.7417 17.0585 10.7224 17.1479 10.685C17.2374 10.6476 17.3185 10.5927 17.3866 10.5237C17.4546 10.4546 17.5083 10.3727 17.5445 10.2828C17.5806 10.1928 17.5985 10.0965 17.5972 9.99957V5.12173C17.5972 4.70882 17.9159 4.39006 18.3288 4.39006C18.7417 4.39006 19.0605 4.70882 19.0605 5.12173V14.4077C19.0397 16.71 17.1913 18.5566 14.8962 18.5358C14.894 18.5358 14.8918 18.5358 14.8896 18.5358H10.7158C10.711 18.5358 10.7063 18.5358 10.7015 18.5358C9.70142 18.5554 8.77128 18.0698 8.02345 17.2792H8.02249C6.79773 15.9836 3.54907 13.0755 3.07701 12.6519C3.09622 12.6117 3.08239 12.6115 3.11131 12.5681C3.23969 12.3753 3.38231 12.1946 3.94683 12.1946C4.12637 12.1946 4.32354 12.2398 4.53274 12.3308C5.08269 12.5701 6.25391 13.2323 6.99548 13.6541C7.77852 14.1009 8.81705 13.4926 8.81705 12.5938V3.1706C8.81705 2.75769 9.13581 2.43892 9.54872 2.43892C9.96163 2.43892 10.2804 2.75769 10.2804 3.1706V9.51179C10.279 9.60875 10.2969 9.70501 10.3331 9.79498C10.3693 9.88495 10.4229 9.96684 10.491 10.0359C10.5591 10.1049 10.6402 10.1598 10.7297 10.1972C10.8191 10.2346 10.9151 10.2539 11.0121 10.2539C11.109 10.2539 11.205 10.2346 11.2945 10.1972C11.3839 10.1598 11.4651 10.1049 11.5331 10.0359C11.6012 9.96684 11.6549 9.88495 11.6911 9.79498C11.7272 9.70501 11.7451 9.60875 11.7438 9.51179V3.1706V2.19503C11.7438 1.78212 12.0625 1.46335 12.4754 1.46335Z"/>
</mask>
<path d="M12.4754 0C11.6242 0 10.8867 0.500519 10.5233 1.2166C10.2278 1.06738 9.89962 0.975568 9.54872 0.975568C8.34512 0.975568 7.35369 1.96699 7.35369 3.1706V12.186C6.63778 11.7781 5.74815 11.2632 5.11675 10.9885C4.7611 10.8337 4.36629 10.7313 3.94683 10.7313C2.94605 10.7313 2.23157 11.2501 1.89375 11.7573C1.55594 12.2645 1.5041 12.7853 1.5041 12.7853C1.49185 12.9005 1.50715 13.017 1.54872 13.1251C1.59029 13.2333 1.65696 13.33 1.74323 13.4074C1.74323 13.4074 5.81251 17.0711 6.95928 18.2843C7.9225 19.303 9.23879 20.0283 10.7301 19.9991H14.8829C17.9759 20.0272 20.4959 17.5069 20.5239 14.4211C20.5239 14.4188 20.5239 14.4166 20.5239 14.4144V5.12173C20.5239 3.91813 19.5324 2.9267 18.3288 2.9267C18.0678 2.9267 17.8198 2.98046 17.5867 3.0658C17.5301 1.91093 16.5699 0.975568 15.4021 0.975568C15.0462 0.975568 14.7224 1.08237 14.4237 1.23566C14.0626 0.513134 13.3314 0 12.4754 0ZM12.4754 1.46335C12.8883 1.46335 13.2071 1.78212 13.2071 2.19503V3.1706V9.51179C13.2057 9.60875 13.2236 9.70501 13.2598 9.79498C13.296 9.88495 13.3496 9.96684 13.4177 10.0359C13.4858 10.1049 13.5669 10.1598 13.6564 10.1972C13.7458 10.2346 13.8418 10.2539 13.9388 10.2539C14.0357 10.2539 14.1317 10.2346 14.2212 10.1972C14.3106 10.1598 14.3918 10.1049 14.4599 10.0359C14.5279 9.96684 14.5816 9.88495 14.6178 9.79498C14.6539 9.70501 14.6718 9.60875 14.6705 9.51179V3.1706C14.6705 2.75769 14.9892 2.43892 15.4021 2.43892C15.815 2.43892 16.1338 2.75769 16.1338 3.1706V5.12173V9.99957C16.1324 10.0965 16.1504 10.1928 16.1865 10.2828C16.2227 10.3727 16.2763 10.4546 16.3444 10.5237C16.4125 10.5927 16.4936 10.6476 16.5831 10.685C16.6725 10.7224 16.7685 10.7417 16.8655 10.7417C16.9625 10.7417 17.0585 10.7224 17.1479 10.685C17.2374 10.6476 17.3185 10.5927 17.3866 10.5237C17.4546 10.4546 17.5083 10.3727 17.5445 10.2828C17.5806 10.1928 17.5985 10.0965 17.5972 9.99957V5.12173C17.5972 4.70882 17.9159 4.39006 18.3288 4.39006C18.7417 4.39006 19.0605 4.70882 19.0605 5.12173V14.4077C19.0397 16.71 17.1913 18.5566 14.8962 18.5358C14.894 18.5358 14.8918 18.5358 14.8896 18.5358H10.7158C10.711 18.5358 10.7063 18.5358 10.7015 18.5358C9.70142 18.5554 8.77128 18.0698 8.02345 17.2792H8.02249C6.79773 15.9836 3.54907 13.0755 3.07701 12.6519C3.09622 12.6117 3.08239 12.6115 3.11131 12.5681C3.23969 12.3753 3.38231 12.1946 3.94683 12.1946C4.12637 12.1946 4.32354 12.2398 4.53274 12.3308C5.08269 12.5701 6.25391 13.2323 6.99548 13.6541C7.77852 14.1009 8.81705 13.4926 8.81705 12.5938V3.1706C8.81705 2.75769 9.13581 2.43892 9.54872 2.43892C9.96163 2.43892 10.2804 2.75769 10.2804 3.1706V9.51179C10.279 9.60875 10.2969 9.70501 10.3331 9.79498C10.3693 9.88495 10.4229 9.96684 10.491 10.0359C10.5591 10.1049 10.6402 10.1598 10.7297 10.1972C10.8191 10.2346 10.9151 10.2539 11.0121 10.2539C11.109 10.2539 11.205 10.2346 11.2945 10.1972C11.3839 10.1598 11.4651 10.1049 11.5331 10.0359C11.6012 9.96684 11.6549 9.88495 11.6911 9.79498C11.7272 9.70501 11.7451 9.60875 11.7438 9.51179V3.1706V2.19503C11.7438 1.78212 12.0625 1.46335 12.4754 1.46335Z" fill="currentColor"/>
<path d="M10.5233 1.2166L9.58429 3.07629L11.4404 4.01353L12.3812 2.15927L10.5233 1.2166ZM7.35369 12.186L6.3223 13.9961L9.43703 15.7709V12.186H7.35369ZM5.11675 10.9885L4.28534 12.8987L4.28559 12.8988L5.11675 10.9885ZM1.89375 11.7573L3.6277 12.9122L3.6277 12.9122L1.89375 11.7573ZM1.5041 12.7853L3.57581 13.0054L3.57718 12.9917L1.5041 12.7853ZM1.74323 13.4074L3.13719 11.8591L3.13408 11.8563L1.74323 13.4074ZM6.95928 18.2843L5.44528 19.7154L5.4455 19.7156L6.95928 18.2843ZM10.7301 19.9991V17.9158H10.7097L10.6893 17.9162L10.7301 19.9991ZM14.8829 19.9991L14.9018 17.9159L14.8923 17.9158H14.8829V19.9991ZM20.5239 14.4211L22.6071 14.4399L22.6072 14.4306L20.5239 14.4211ZM20.5239 14.4144H18.4405L18.4406 14.4239L20.5239 14.4144ZM17.5867 3.0658L15.5058 3.16774L15.6444 5.99525L18.3028 5.0222L17.5867 3.0658ZM14.4237 1.23566L12.5601 2.16697L13.5014 4.05058L15.3749 3.08918L14.4237 1.23566ZM13.2071 9.51179L15.2902 9.54125L15.2904 9.52652V9.51179H13.2071ZM13.9388 10.2539V12.3372V10.2539ZM14.6705 9.51179H12.5871V9.52652L12.5873 9.54125L14.6705 9.51179ZM16.1338 9.99957L18.2169 10.029L18.2171 10.0143V9.99957H16.1338ZM17.5972 9.99957H15.5138V10.0143L15.514 10.029L17.5972 9.99957ZM19.0605 14.4077L21.1438 14.4266L21.1438 14.4172V14.4077H19.0605ZM14.8962 18.5358L14.9151 16.4525L14.9057 16.4525L14.8962 18.5358ZM14.8896 18.5358V20.6192L14.8991 20.6191L14.8896 18.5358ZM10.7158 18.5358L10.6954 20.619L10.7056 20.6191H10.7158V18.5358ZM10.7015 18.5358L10.6812 16.4526L10.6709 16.4527L10.6607 16.4529L10.7015 18.5358ZM8.02345 17.2792L9.537 15.8476L8.92055 15.1958H8.02345V17.2792ZM8.02249 17.2792L6.50855 18.7104L7.12505 19.3625H8.02249V17.2792ZM3.07701 12.6519L1.1976 11.753L0.524337 13.1605L1.6857 14.2026L3.07701 12.6519ZM3.11131 12.5681L4.84525 13.7229L4.84526 13.7229L3.11131 12.5681ZM4.53274 12.3308L3.70132 14.2411L3.70158 14.2412L4.53274 12.3308ZM6.99548 13.6541L8.02793 11.8446L8.02563 11.8433L6.99548 13.6541ZM10.2804 9.51179L12.3635 9.54125L12.3637 9.52652V9.51179H10.2804ZM11.0121 10.2539V8.17056V10.2539ZM11.7438 9.51179H9.66042V9.52652L9.66063 9.54125L11.7438 9.51179ZM12.4754 -2.08333C10.7831 -2.08333 9.35759 -1.09013 8.66547 0.273938L12.3812 2.15927C12.3953 2.13145 12.4169 2.1089 12.4375 2.09576C12.4542 2.08512 12.4649 2.08333 12.4754 2.08333V-2.08333ZM11.4624 -0.64309C10.9187 -0.917612 10.2709 -1.10776 9.54872 -1.10776V3.0589C9.54106 3.0589 9.53763 3.05774 9.54111 3.05863C9.54542 3.05973 9.55987 3.06396 9.58429 3.07629L11.4624 -0.64309ZM9.54872 -1.10776C7.19452 -1.10776 5.27036 0.816396 5.27036 3.1706H9.43703C9.43703 3.15159 9.44346 3.12441 9.473 3.09487C9.50253 3.06533 9.52972 3.0589 9.54872 3.0589V-1.10776ZM5.27036 3.1706V12.186H9.43703V3.1706H5.27036ZM8.38509 10.3759C7.72417 9.99933 6.70967 9.40956 5.9479 9.07813L4.28559 12.8988C4.78663 13.1168 5.55139 13.5569 6.3223 13.9961L8.38509 10.3759ZM5.94815 9.07823C5.38666 8.83385 4.70813 8.64792 3.94683 8.64792V12.8146C4.02445 12.8146 4.13553 12.8335 4.28534 12.8987L5.94815 9.07823ZM3.94683 8.64792C2.19487 8.64792 0.852836 9.56191 0.159803 10.6025L3.6277 12.9122C3.61107 12.9371 3.62659 12.907 3.68714 12.8732C3.73539 12.8462 3.8162 12.8146 3.94683 12.8146V8.64792ZM0.159803 10.6025C-0.159975 11.0826 -0.334786 11.5519 -0.431271 11.8904C-0.480601 12.0634 -0.512649 12.2135 -0.533383 12.3296C-0.543809 12.3879 -0.551543 12.4386 -0.557237 12.4804C-0.560088 12.5013 -0.56244 12.52 -0.564371 12.5365C-0.565337 12.5447 -0.566198 12.5524 -0.566964 12.5594C-0.567348 12.563 -0.567707 12.5664 -0.568044 12.5696C-0.568213 12.5712 -0.568376 12.5728 -0.568533 12.5744C-0.568612 12.5751 -0.56869 12.5759 -0.568766 12.5767C-0.568804 12.577 -0.56886 12.5776 -0.568879 12.5778C-0.568935 12.5784 -0.56899 12.5789 1.5041 12.7853C3.57718 12.9917 3.57713 12.9922 3.57707 12.9928C3.57706 12.9929 3.577 12.9935 3.57696 12.9938C3.57689 12.9946 3.57682 12.9953 3.57675 12.996C3.5766 12.9974 3.57646 12.9988 3.57632 13.0002C3.57603 13.0029 3.57575 13.0056 3.57548 13.0081C3.57493 13.0132 3.5744 13.0179 3.57389 13.0221C3.57289 13.0307 3.57198 13.0378 3.5712 13.0435C3.56967 13.0547 3.56862 13.0608 3.56833 13.0624C3.56788 13.065 3.5699 13.0532 3.57576 13.0326C3.58965 12.9839 3.60966 12.9393 3.6277 12.9122L0.159803 10.6025ZM-0.567574 12.5651C-0.614675 13.0084 -0.555838 13.4565 -0.395903 13.8726L3.49334 12.3777C3.57013 12.5774 3.59838 12.7926 3.57577 13.0054L-0.567574 12.5651ZM-0.395903 13.8726C-0.235969 14.2887 0.0204898 14.6609 0.352368 14.9585L3.13408 11.8563C3.29343 11.9992 3.41656 12.1779 3.49334 12.3777L-0.395903 13.8726ZM1.74323 13.4074C0.349264 14.9557 0.349261 14.9557 0.349274 14.9557C0.349298 14.9557 0.349326 14.9557 0.349376 14.9558C0.349475 14.9559 0.349635 14.956 0.349857 14.9562C0.3503 14.9566 0.350988 14.9572 0.351917 14.9581C0.353776 14.9597 0.3566 14.9623 0.360363 14.9657C0.367889 14.9724 0.37917 14.9826 0.393992 14.996C0.423636 15.0227 0.467442 15.0622 0.523703 15.1131C0.636237 15.2147 0.798544 15.3616 0.996995 15.5416C1.3941 15.902 1.93496 16.3945 2.51085 16.9242C3.68945 18.0083 4.93276 19.1732 5.44528 19.7154L8.47327 16.8532C7.83903 16.1822 6.47431 14.9086 5.33158 13.8576C4.7468 13.3197 4.19867 12.8205 3.79694 12.456C3.59598 12.2736 3.43142 12.1247 3.31693 12.0213C3.25968 11.9696 3.21494 11.9292 3.18442 11.9017C3.16916 11.8879 3.15745 11.8774 3.1495 11.8702C3.14553 11.8666 3.1425 11.8639 3.14044 11.8621C3.13941 11.8611 3.13862 11.8604 3.13808 11.8599C3.13781 11.8597 3.1376 11.8595 3.13745 11.8594C3.13737 11.8593 3.13731 11.8592 3.13727 11.8592C3.13722 11.8592 3.13719 11.8591 1.74323 13.4074ZM5.4455 19.7156C6.70093 21.0434 8.54854 22.1256 10.7709 22.0821L10.6893 17.9162C9.92904 17.9311 9.14406 17.5626 8.47305 16.8529L5.4455 19.7156ZM10.7301 22.0825H14.8829V17.9158H10.7301V22.0825ZM14.864 22.0824C19.1279 22.121 22.5689 18.6558 22.6071 14.4399L18.4406 14.4022C18.4229 16.3579 16.8238 17.9333 14.9018 17.9159L14.864 22.0824ZM22.6072 14.4306C22.6072 14.422 22.6072 14.4135 22.6072 14.4049L18.4406 14.4239C18.4405 14.4198 18.4405 14.4157 18.4406 14.4116L22.6072 14.4306ZM22.6072 14.4144V5.12173H18.4405V14.4144H22.6072ZM22.6072 5.12173C22.6072 2.76753 20.683 0.843372 18.3288 0.843372V5.01004C18.3478 5.01004 18.375 5.01647 18.4046 5.04601C18.4341 5.07554 18.4405 5.10273 18.4405 5.12173H22.6072ZM18.3288 0.843372C17.778 0.843372 17.2862 0.957291 16.8706 1.1094L18.3028 5.0222C18.3284 5.01283 18.3422 5.00981 18.3456 5.00915C18.3484 5.00861 18.3421 5.01004 18.3288 5.01004V0.843372ZM19.6675 2.96386C19.5576 0.719213 17.7007 -1.10776 15.4021 -1.10776V3.0589C15.4183 3.0589 15.4402 3.06343 15.4667 3.08891C15.4948 3.11598 15.5047 3.14502 15.5058 3.16774L19.6675 2.96386ZM15.4021 -1.10776C14.6164 -1.10776 13.9626 -0.869367 13.4725 -0.617864L15.3749 3.08918C15.4285 3.06168 15.454 3.05408 15.4564 3.05339C15.4571 3.0532 15.4519 3.05469 15.4417 3.05618C15.4313 3.05769 15.4178 3.0589 15.4021 3.0589V-1.10776ZM16.2873 0.304342C15.6099 -1.05104 14.1992 -2.08333 12.4754 -2.08333V2.08333C12.4799 2.08333 12.4812 2.08381 12.4819 2.08402C12.4832 2.08443 12.4882 2.08614 12.4965 2.09153C12.5154 2.10383 12.5413 2.12923 12.5601 2.16697L16.2873 0.304342ZM12.4754 3.54669C11.7377 3.54669 11.1238 2.93271 11.1238 2.19503H15.2904C15.2904 0.631527 14.0389 -0.619981 12.4754 -0.619981V3.54669ZM11.1238 2.19503V3.1706H15.2904V2.19503H11.1238ZM11.1238 3.1706V9.51179H15.2904V3.1706H11.1238ZM11.124 9.48233C11.1187 9.85533 11.1876 10.2257 11.3267 10.5718L15.1929 9.01818C15.2597 9.18436 15.2928 9.36216 15.2902 9.54125L11.124 9.48233ZM11.3267 10.5718C11.4658 10.9179 11.6723 11.2329 11.9342 11.4986L14.9012 8.57321C15.027 8.70074 15.1261 8.852 15.1929 9.01818L11.3267 10.5718ZM11.9342 11.4986C12.1961 11.7642 12.5082 11.9751 12.8523 12.1191L14.4604 8.27528C14.6257 8.3444 14.7755 8.44568 14.9012 8.57321L11.9342 11.4986ZM12.8523 12.1191C13.1964 12.2631 13.5658 12.3372 13.9388 12.3372V8.17056C14.1179 8.17056 14.2952 8.20615 14.4604 8.27528L12.8523 12.1191ZM13.9388 12.3372C14.3118 12.3372 14.6811 12.2631 15.0253 12.1191L13.4171 8.27528C13.5824 8.20615 13.7597 8.17056 13.9388 8.17056V12.3372ZM15.0253 12.1191C15.3694 11.9751 15.6815 11.7642 15.9434 11.4986L12.9763 8.57321C13.1021 8.44568 13.2519 8.3444 13.4171 8.27528L15.0253 12.1191ZM15.9434 11.4986C16.2053 11.2329 16.4118 10.9179 16.5509 10.5718L12.6847 9.01818C12.7514 8.852 12.8506 8.70074 12.9763 8.57321L15.9434 11.4986ZM16.5509 10.5718C16.6899 10.2257 16.7589 9.85533 16.7536 9.48233L12.5873 9.54125C12.5848 9.36216 12.6179 9.18436 12.6847 9.01818L16.5509 10.5718ZM16.7538 9.51179V3.1706H12.5871V9.51179H16.7538ZM16.7538 3.1706C16.7538 3.90828 16.1398 4.52225 15.4021 4.52225V0.355587C13.8386 0.355587 12.5871 1.6071 12.5871 3.1706H16.7538ZM15.4021 4.52225C14.6644 4.52225 14.0505 3.90828 14.0505 3.1706H18.2171C18.2171 1.6071 16.9656 0.355587 15.4021 0.355587V4.52225ZM14.0505 3.1706V5.12173H18.2171V3.1706H14.0505ZM14.0505 5.12173V9.99957H18.2171V5.12173H14.0505ZM14.0507 9.97011C14.0454 10.3431 14.1143 10.7134 14.2534 11.0596L18.1196 9.50597C18.1864 9.67215 18.2195 9.84995 18.2169 10.029L14.0507 9.97011ZM14.2534 11.0596C14.3925 11.4057 14.599 11.7207 14.8609 11.9864L17.8279 9.06099C17.9537 9.18853 18.0528 9.33979 18.1196 9.50597L14.2534 11.0596ZM14.8609 11.9864C15.1228 12.252 15.4349 12.4629 15.779 12.6069L17.3871 8.76306C17.5524 8.83218 17.7022 8.93346 17.8279 9.06099L14.8609 11.9864ZM15.779 12.6069C16.1231 12.7509 16.4925 12.825 16.8655 12.825V8.65834C17.0446 8.65834 17.2219 8.69393 17.3871 8.76306L15.779 12.6069ZM16.8655 12.825C17.2385 12.825 17.6078 12.7509 17.952 12.6069L16.3438 8.76306C16.5091 8.69393 16.6864 8.65834 16.8655 8.65834V12.825ZM17.952 12.6069C18.2961 12.4629 18.6082 12.252 18.8701 11.9864L15.903 9.06099C16.0288 8.93346 16.1786 8.83218 16.3438 8.76306L17.952 12.6069ZM18.8701 11.9864C19.132 11.7207 19.3385 11.4057 19.4776 11.0596L15.6114 9.50597C15.6781 9.33979 15.7773 9.18853 15.903 9.06099L18.8701 11.9864ZM19.4776 11.0596C19.6166 10.7134 19.6856 10.3431 19.6803 9.97011L15.514 10.029C15.5115 9.84995 15.5446 9.67215 15.6114 9.50597L19.4776 11.0596ZM19.6805 9.99957V5.12173H15.5138V9.99957H19.6805ZM19.6805 5.12173C19.6805 5.85942 19.0665 6.47339 18.3288 6.47339V2.30672C16.7653 2.30672 15.5138 3.55823 15.5138 5.12173H19.6805ZM18.3288 6.47339C17.5912 6.47339 16.9772 5.85942 16.9772 5.12173H21.1438C21.1438 3.55823 19.8923 2.30672 18.3288 2.30672V6.47339ZM16.9772 5.12173V14.4077H21.1438V5.12173H16.9772ZM16.9773 14.3889C16.9666 15.5638 16.0366 16.4627 14.9151 16.4525L14.8774 20.619C18.3461 20.6504 21.1127 17.8562 21.1438 14.4266L16.9773 14.3889ZM14.9057 16.4525C14.8972 16.4524 14.8886 16.4524 14.8801 16.4525L14.8991 20.6191C14.895 20.6191 14.8909 20.6191 14.8868 20.6191L14.9057 16.4525ZM14.8896 16.4525H10.7158V20.6191H14.8896V16.4525ZM10.7361 16.4526C10.7178 16.4524 10.6995 16.4524 10.6812 16.4526L10.7218 20.619C10.713 20.6191 10.7042 20.6191 10.6954 20.619L10.7361 16.4526ZM10.6607 16.4529C10.3986 16.458 9.99877 16.3358 9.537 15.8476L6.50989 18.7108C7.54379 19.8039 9.00425 20.6528 10.7423 20.6187L10.6607 16.4529ZM8.02345 15.1958H8.02249V19.3625H8.02345V15.1958ZM9.53644 15.848C8.23669 14.4731 4.90226 11.4906 4.46832 11.1012L1.6857 14.2026C2.19588 14.6603 5.35878 17.4941 6.50855 18.7104L9.53644 15.848ZM4.95642 13.5508C4.98014 13.5013 5.00399 13.4469 5.02676 13.3878C5.04994 13.3276 5.0695 13.2691 5.08603 13.2126C5.10222 13.1572 5.11286 13.1126 5.11806 13.0902C5.11982 13.0826 5.12238 13.0713 5.12113 13.0768C5.12087 13.078 5.11833 13.0892 5.11478 13.1038C5.10692 13.1361 5.09281 13.1906 5.07086 13.257C5.04855 13.3245 5.02261 13.3909 4.99319 13.4556C4.93639 13.5806 4.87877 13.6726 4.84525 13.7229L1.37736 11.4132C1.32939 11.4852 1.26265 11.5935 1.1997 11.7321C1.16722 11.8036 1.13896 11.876 1.11477 11.9492C1.09093 12.0212 1.07539 12.0811 1.06626 12.1186C1.06207 12.1358 1.05893 12.1497 1.05807 12.1535C1.05622 12.1616 1.05817 12.153 1.0593 12.1481C1.06323 12.1312 1.07245 12.0924 1.08678 12.0433C1.11844 11.9351 1.15707 11.8377 1.1976 11.753L4.95642 13.5508ZM4.84526 13.7229C4.87869 13.6727 4.72118 13.9355 4.39246 14.1217C4.08806 14.2941 3.86662 14.2779 3.94683 14.2779V10.1113C3.46252 10.1113 2.88751 10.1854 2.33857 10.4964C1.76532 10.8212 1.4723 11.2706 1.37736 11.4132L4.84526 13.7229ZM3.94683 14.2779C3.78015 14.2779 3.69303 14.2375 3.70132 14.2411L5.36416 10.4206C4.95405 10.2421 4.47258 10.1113 3.94683 10.1113V14.2779ZM3.70158 14.2412C4.12237 14.4243 5.17095 15.0131 5.96533 15.465L8.02563 11.8433C7.33687 11.4515 6.04301 10.716 5.3639 10.4205L3.70158 14.2412ZM5.96303 15.4637C8.14457 16.7084 10.9004 15.0805 10.9004 12.5938H6.73371C6.73371 12.1951 6.96588 11.9365 7.15003 11.8291C7.33547 11.7209 7.67907 11.6456 8.02793 11.8446L5.96303 15.4637ZM10.9004 12.5938V3.1706H6.73371V12.5938H10.9004ZM10.9004 3.1706C10.9004 3.90828 10.2864 4.52225 9.54872 4.52225V0.355587C7.98522 0.355587 6.73371 1.6071 6.73371 3.1706H10.9004ZM9.54872 4.52225C8.81104 4.52225 8.19707 3.90828 8.19707 3.1706H12.3637C12.3637 1.6071 11.1122 0.355587 9.54872 0.355587V4.52225ZM8.19707 3.1706V9.51179H12.3637V3.1706H8.19707ZM8.19727 9.48233C8.192 9.85533 8.26091 10.2257 8.4 10.5718L12.2662 9.01818C12.333 9.18436 12.3661 9.36216 12.3635 9.54125L8.19727 9.48233ZM8.4 10.5718C8.53909 10.9179 8.74558 11.2329 9.00749 11.4986L11.9745 8.57321C12.1003 8.70074 12.1994 8.852 12.2662 9.01818L8.4 10.5718ZM9.00749 11.4986C9.26938 11.7642 9.58146 11.9751 9.9256 12.1191L11.5337 8.27528C11.6989 8.3444 11.8488 8.44568 11.9745 8.57321L9.00749 11.4986ZM9.9256 12.1191C10.2697 12.2631 10.639 12.3372 11.0121 12.3372V8.17056C11.1912 8.17056 11.3685 8.20615 11.5337 8.27528L9.9256 12.1191ZM11.0121 12.3372C11.3851 12.3372 11.7544 12.2631 12.0985 12.1191L10.4904 8.27528C10.6557 8.20615 10.833 8.17056 11.0121 8.17056V12.3372ZM12.0985 12.1191C12.4427 11.9751 12.7548 11.7642 13.0167 11.4986L10.0496 8.57321C10.1754 8.44568 10.3252 8.3444 10.4904 8.27528L12.0985 12.1191ZM13.0167 11.4986C13.2786 11.2329 13.4851 10.9179 13.6242 10.5718L9.75796 9.01818C9.82474 8.852 9.92388 8.70074 10.0496 8.57321L13.0167 11.4986ZM13.6242 10.5718C13.7632 10.2257 13.8322 9.85533 13.8269 9.48233L9.66063 9.54125C9.65809 9.36216 9.69118 9.18436 9.75796 9.01818L13.6242 10.5718ZM13.8271 9.51179V3.1706H9.66042V9.51179H13.8271ZM13.8271 3.1706V2.19503H9.66042V3.1706H13.8271ZM13.8271 2.19503C13.8271 2.93271 13.2131 3.54669 12.4754 3.54669V-0.619981C10.9119 -0.619981 9.66042 0.631527 9.66042 2.19503H13.8271Z" fill="currentColor" mask="url(#path-1-inside-1_3654_6973)"/>
</svg>
