<svg width="24" height="20" viewBox="0 0 24 20" fill="none" xmlns="http://www.w3.org/2000/svg">
<path fill-rule="evenodd" clip-rule="evenodd" d="M14.3879 0.489402C15.1677 0.166301 16.0034 0 16.8475 0C17.6916 0 18.5274 0.166301 19.3071 0.489402C20.0868 0.812444 20.7951 1.2859 21.3918 1.88273C21.9886 2.47937 22.4624 3.18806 22.7854 3.96769C23.1085 4.74746 23.2748 5.58326 23.2748 6.42732C23.2748 7.27139 23.1085 8.10719 22.7854 8.88696C22.4624 9.66667 21.9889 10.3751 21.3919 10.9718C21.3919 10.9718 21.392 10.9717 21.3919 10.9718L12.6532 19.7105C12.2672 20.0965 11.6413 20.0965 11.2552 19.7105L2.51652 10.9718C1.31126 9.7665 0.634155 8.13182 0.634155 6.42732C0.634155 4.72283 1.31126 3.08815 2.51652 1.88289C3.72178 0.677636 5.35646 0.000528645 7.06095 0.000528645C8.76544 0.000528645 10.4001 0.677636 11.6054 1.88289L11.9542 2.23174L12.3029 1.88306C12.303 1.883 12.3029 1.88311 12.3029 1.88306C12.8996 1.28615 13.6082 0.812474 14.3879 0.489402ZM16.8475 1.97708C16.2632 1.97708 15.6845 2.09221 15.1447 2.3159C14.6048 2.53959 14.1144 2.86744 13.7013 3.28074L12.6532 4.32876C12.2672 4.71481 11.6413 4.71481 11.2552 4.32876L10.2074 3.2809C9.37289 2.44642 8.24109 1.97761 7.06095 1.97761C5.88081 1.97761 4.74901 2.44642 3.91453 3.2809C3.08005 4.11539 2.61124 5.24719 2.61124 6.42732C2.61124 7.60746 3.08005 8.73926 3.91453 9.57375L11.9542 17.6135L19.9939 9.57375C20.4072 9.16065 20.7352 8.67 20.9589 8.13015C21.1826 7.5903 21.2978 7.01168 21.2978 6.42732C21.2978 5.84297 21.1826 5.26435 20.9589 4.7245C20.7352 4.18465 20.4074 3.69417 19.9941 3.28107C19.581 2.86777 19.0902 2.53959 18.5503 2.3159C18.0105 2.09221 17.4319 1.97708 16.8475 1.97708Z" fill="currentColor"/>
</svg>
