<svg width="25" height="24" viewBox="0 0 25 24" fill="none" xmlns="http://www.w3.org/2000/svg">
<g clip-path="url(#clip0_371_8924)">
<path d="M12.8087 22C18.3316 22 22.8087 17.5228 22.8087 12C22.8087 6.47715 18.3316 2 12.8087 2C7.28587 2 2.80872 6.47715 2.80872 12C2.80872 17.5228 7.28587 22 12.8087 22Z" stroke="white" stroke-width="1.5" stroke-linecap="round" stroke-linejoin="round"/>
<path d="M9.89868 9.00002C10.1338 8.33169 10.5978 7.76813 11.2086 7.40915C11.8194 7.05018 12.5376 6.91896 13.2359 7.03873C13.9341 7.15851 14.5675 7.52154 15.0238 8.06355C15.48 8.60555 15.7297 9.29154 15.7287 10C15.7287 12 12.7287 13 12.7287 13" stroke="white" stroke-width="1.5" stroke-linecap="round" stroke-linejoin="round"/>
<path d="M12.8087 17H12.8187" stroke="white" stroke-width="1.5" stroke-linecap="round" stroke-linejoin="round"/>
</g>
<defs>
<clipPath id="clip0_371_8924">
<rect width="24" height="24" fill="white" transform="translate(0.808716)"/>
</clipPath>
</defs>
</svg>
