<svg width="17" height="16" viewBox="0 0 17 16" fill="none" xmlns="http://www.w3.org/2000/svg">
<path d="M8.49993 14.9642C12.3462 14.9642 15.4642 11.8462 15.4642 7.99993C15.4642 4.15366 12.3462 1.03564 8.49993 1.03564C4.65366 1.03564 1.53564 4.15366 1.53564 7.99993C1.53564 11.8462 4.65366 14.9642 8.49993 14.9642Z" stroke="#767C8F" stroke-width="1.21" stroke-linecap="round" stroke-linejoin="round"/>
<path d="M6.89258 6.39279C6.89258 6.07493 6.98684 5.7642 7.16343 5.49991C7.34003 5.23561 7.59103 5.02962 7.88469 4.90798C8.17836 4.78634 8.5015 4.75451 8.81326 4.81653C9.12501 4.87854 9.41138 5.0316 9.63614 5.25637C9.86091 5.48113 10.014 5.7675 10.076 6.07925C10.138 6.39101 10.1062 6.71415 9.98453 7.00782C9.86289 7.30148 9.6569 7.55248 9.3926 7.72908C9.12831 7.90567 8.81758 7.99993 8.49972 7.99993V9.07136" stroke="#767C8F" stroke-width="1.21" stroke-linecap="round" stroke-linejoin="round"/>
<path d="M8.49986 10.6785C8.34093 10.6785 8.18557 10.7256 8.05342 10.8139C7.92127 10.9022 7.81828 11.0277 7.75746 11.1745C7.69664 11.3214 7.68072 11.4829 7.71173 11.6388C7.74274 11.7947 7.81927 11.9379 7.93165 12.0502C8.04403 12.1626 8.18721 12.2392 8.34309 12.2702C8.49897 12.3012 8.66054 12.2853 8.80737 12.2244C8.95421 12.1636 9.07971 12.0606 9.16801 11.9285C9.2563 11.7963 9.30343 11.641 9.30343 11.482C9.30066 11.2698 9.21511 11.067 9.065 10.9169C8.9149 10.7668 8.71212 10.6812 8.49986 10.6785Z" fill="#767C8F"/>
</svg>
