<?xml version="1.0" encoding="UTF-8" standalone="no"?>

<svg
   width="18"
   height="18"
   viewBox="0 0 4.7624999 4.7624999"
   version="1.1"
   id="svg5"
   xmlns="http://www.w3.org/2000/svg">
  <defs
     id="defs2" />
  <g
     id="layer1"
     transform="translate(-137.37187,-117.50322)">
    <g
       id="g5209"
       transform="matrix(1.1035372,0,0,1.1035372,-13.655341,-11.891682)">
      <path
         style="fill:none;stroke:#767c8f;stroke-width:0.264583px;stroke-linecap:round;stroke-linejoin:round;stroke-opacity:1"
         d="m 137.51395,121.18935 3.04146,-1.75599 h -1.42929 -1.5701"
         id="path3464" />
      <path
         style="fill:none;stroke:#767c8f;stroke-width:0.264583px;stroke-linecap:round;stroke-linejoin:round;stroke-opacity:1"
         d="m 137.53631,119.40059 3.04146,-1.75599 -3.05299,3.52882"
         id="path3466" />
      <path
         style="fill:#767c8f;stroke:#767c8f;stroke-width:0.255419;stroke-linecap:round;stroke-linejoin:round;stroke-dasharray:none;stroke-opacity:1"
         d="m 521.64158,450.85225 c 0.10782,-0.0949 7.03446,-4.06778 7.0555,-4.04674 0.012,0.012 -0.77032,0.93793 -1.73855,2.05754 l -1.76043,2.03566 h -1.80464 c -0.99254,0 -1.78089,-0.0209 -1.75188,-0.0465 z"
         id="path3600"
         transform="scale(0.26458333)" />
      <path
         style="fill:#767c8f;stroke:none;stroke-width:0.255419;stroke-linecap:round;stroke-linejoin:round;stroke-dasharray:none"
         d="m 522.34213,455.85143 c 0.0102,-0.0245 0.76811,-0.91119 1.68429,-1.97034 l 1.66578,-1.92573 1.74444,-8.3e-4 c 0.95944,-4.6e-4 1.73403,0.009 1.72131,0.0217 -0.0426,0.0415 -6.77585,3.9198 -6.80529,3.9198 -0.016,0 -0.0207,-0.0201 -0.0105,-0.0446 z"
         id="path3602"
         transform="scale(0.26458333)" />
      <path
         style="fill:#767c8f;stroke:#767c8f;stroke-width:0.115032;stroke-linecap:round;stroke-linejoin:round;stroke-dasharray:none;stroke-opacity:1"
         d="m 522.37469,455.84412 c 0.0127,-0.036 0.94805,-1.12802 2.71835,-3.17357 l 0.61138,-0.70644 h 1.54319 c 0.84875,0 1.61307,0.007 1.6985,0.0162 l 0.15531,0.0162 -0.1704,0.0993 c -1.28581,0.74945 -6.3182,3.64466 -6.50632,3.74318 -0.0355,0.0186 -0.0555,0.0206 -0.05,0.005 z"
         id="path4399"
         transform="scale(0.26458333)" />
      <path
         style="fill:#767c8f;stroke:#767c8f;stroke-width:0.115032;stroke-linecap:round;stroke-linejoin:round;stroke-dasharray:none;stroke-opacity:1"
         d="m 522.21048,455.95272 c 0.0754,-0.0988 0.0757,-0.099 0.12116,-0.0565 0.0272,0.0254 0.0167,0.0412 -0.0573,0.0867 -0.12646,0.0778 -0.141,0.0709 -0.0638,-0.0303 z"
         id="path4470"
         transform="scale(0.26458333)" />
      <path
         style="fill:#767c8f;stroke:#767c8f;stroke-width:0.115032;stroke-linecap:round;stroke-linejoin:round;stroke-dasharray:none;stroke-opacity:1"
         d="m 519.52652,458.47599 c -0.25395,-0.12949 -0.34252,-0.42579 -0.20449,-0.68409 0.0261,-0.0488 1.17803,-1.39405 2.55993,-2.9895 l 2.51253,-2.90081 -2.3182,-0.0125 c -2.55183,-0.0138 -2.38087,-0.003 -2.53491,-0.16656 -0.23671,-0.25208 -0.2609,-0.59726 -0.0552,-0.7877 0.056,-0.0518 10.88797,-6.32389 11.55746,-6.69215 0.14047,-0.0773 0.17323,-0.0854 0.304,-0.076 0.16803,0.0122 0.28418,0.0785 0.37855,0.21622 0.0895,0.13063 0.0865,0.38167 -0.006,0.51855 -0.0366,0.054 -1.21628,1.42608 -2.62151,3.04903 l -2.55497,2.95083 2.42556,0.0125 2.42557,0.0125 0.1062,0.075 c 0.2705,0.19109 0.28503,0.60342 0.0276,0.78375 -0.0368,0.0258 -2.66648,1.54759 -5.84362,3.38171 -5.7365,3.31161 -5.77766,3.33483 -5.92666,3.34277 -0.10381,0.006 -0.17517,-0.005 -0.23158,-0.0336 z m 2.61974,-2.41138 c 0,-0.0425 -0.0393,-0.0265 -0.10192,0.0413 l -0.0606,0.0657 0.0813,-0.0413 c 0.0447,-0.0227 0.0813,-0.0523 0.0813,-0.0657 z m 1.58795,-0.89289 c 0.63268,-0.36441 1.16158,-0.67411 1.17533,-0.68823 0.0315,-0.0323 -0.0356,0.005 -1.39541,0.78154 -0.61436,0.35072 -1.1172,0.64723 -1.11741,0.6589 -2e-4,0.0117 0.0418,-0.004 0.0934,-0.0342 0.0516,-0.0305 0.61142,-0.35359 1.2441,-0.718 z m -1.32233,0.56122 c 0.075,-0.1012 0.93364,-1.10511 2.05481,-2.40251 0.29284,-0.33886 0.52689,-0.61611 0.52013,-0.61611 -0.0106,0 -0.39429,0.44133 -2.37167,2.72792 -0.17537,0.20279 -0.31884,0.37528 -0.31884,0.38333 0,0.0387 0.0448,0.003 0.11557,-0.0926 z m 2.86651,-1.45452 c 0.16161,-0.0923 0.29383,-0.17324 0.29383,-0.17978 0,-0.007 -0.008,-0.007 -0.0188,-10e-4 -0.0103,0.006 -0.15098,0.0863 -0.31259,0.17861 -0.16161,0.0923 -0.29383,0.17324 -0.29383,0.17978 0,0.007 0.008,0.007 0.0187,10e-4 0.0103,-0.006 0.15098,-0.0863 0.31259,-0.17861 z m 0.46888,-0.27753 c 0,-0.007 -0.0338,0.005 -0.075,0.0263 -0.0413,0.0213 -0.075,0.0444 -0.075,0.0513 0,0.007 0.0338,-0.005 0.075,-0.0263 0.0413,-0.0213 0.075,-0.0444 0.075,-0.0513 z m 0.26883,-0.14759 c 0.11347,-0.0649 0.20631,-0.12338 0.20631,-0.12987 0,-0.006 -0.008,-0.007 -0.0188,-0.001 -0.28939,0.16401 -0.43137,0.24911 -0.43137,0.25856 0,0.006 0.008,0.007 0.0188,10e-4 0.0103,-0.006 0.11159,-0.0638 0.22506,-0.1287 z m 0.38136,-0.22751 c 0,-0.007 -0.0338,0.005 -0.075,0.0263 -0.0413,0.0213 -0.075,0.0444 -0.075,0.0513 0,0.007 0.0338,-0.005 0.075,-0.0263 0.0413,-0.0213 0.075,-0.0444 0.075,-0.0513 z m 0.26882,-0.1476 c 0.11347,-0.0649 0.20631,-0.12338 0.20631,-0.12986 0,-0.006 -0.008,-0.007 -0.0188,-10e-4 -0.28938,0.164 -0.43137,0.24911 -0.43137,0.25856 0,0.006 0.008,0.007 0.0188,0.001 0.0103,-0.006 0.11159,-0.0638 0.22506,-0.1287 z m 0.38136,-0.22751 c 0,-0.007 -0.0338,0.005 -0.075,0.0263 -0.0413,0.0213 -0.075,0.0444 -0.075,0.0513 0,0.007 0.0338,-0.005 0.075,-0.0263 0.0413,-0.0213 0.075,-0.0444 0.075,-0.0513 z m 0.17505,-0.10003 c 0,-0.007 -0.0338,0.005 -0.075,0.0263 -0.0413,0.0213 -0.075,0.0444 -0.075,0.0513 0,0.007 0.0338,-0.005 0.075,-0.0263 0.0413,-0.0213 0.075,-0.0444 0.075,-0.0513 z m 0.12503,-0.0755 c 0,-0.007 -0.0225,-4.6e-4 -0.05,0.0143 -0.0275,0.0147 -0.05,0.0324 -0.05,0.0393 0,0.007 0.0225,4.6e-4 0.05,-0.0143 0.0275,-0.0147 0.05,-0.0324 0.05,-0.0393 z m 0.17505,-0.0996 c 0,-0.007 -0.0338,0.005 -0.075,0.0263 -0.0413,0.0213 -0.075,0.0444 -0.075,0.0513 0,0.007 0.0338,-0.005 0.075,-0.0263 0.0413,-0.0213 0.075,-0.0444 0.075,-0.0513 z m 0.17505,-0.10002 c 0,-0.007 -0.0338,0.005 -0.075,0.0263 -0.0413,0.0213 -0.075,0.0444 -0.075,0.0513 0,0.007 0.0338,-0.005 0.075,-0.0263 0.0413,-0.0213 0.075,-0.0444 0.075,-0.0513 z m 0.28758,-0.1687 c 0.0137,-0.0142 -0.0313,0.006 -0.10003,0.0442 -0.0688,0.0385 -0.13629,0.0816 -0.15004,0.0958 -0.0137,0.0142 0.0313,-0.006 0.10003,-0.0442 0.0688,-0.0385 0.13629,-0.0816 0.15004,-0.0958 z m -2.89924,-0.0988 0.0735,-0.0813 -0.0813,0.0734 c -0.0447,0.0404 -0.0813,0.077 -0.0813,0.0813 0,0.0193 0.0206,0.002 0.0891,-0.0734 z m 3.08679,-0.008 c 0,-0.007 -0.0338,0.005 -0.075,0.0263 -0.0413,0.0213 -0.075,0.0444 -0.075,0.0513 0,0.007 0.0338,-0.005 0.075,-0.0263 0.0413,-0.0213 0.075,-0.0444 0.075,-0.0513 z m 0.26883,-0.1476 c 0.11347,-0.0649 0.20631,-0.12337 0.20631,-0.12986 0,-0.006 -0.008,-0.007 -0.0188,-10e-4 -0.28939,0.16401 -0.43137,0.24911 -0.43137,0.25856 0,0.006 0.008,0.007 0.0188,10e-4 0.0103,-0.006 0.11159,-0.0638 0.22506,-0.1287 z m -3.18057,-0.0449 0.0734,-0.0813 -0.0813,0.0734 c -0.0758,0.0685 -0.0928,0.0891 -0.0734,0.0891 0.004,0 0.0409,-0.0366 0.0813,-0.0813 z m 0.15004,-0.17505 0.0734,-0.0813 -0.0813,0.0734 c -0.0447,0.0404 -0.0813,0.077 -0.0813,0.0813 0,0.0193 0.0206,0.002 0.0891,-0.0734 z m 3.73698,-0.19134 0.23756,-0.14 -1.8491,-0.006 c -1.01701,-0.004 -1.85759,0.002 -1.86797,0.0125 -0.0104,0.0104 0.73733,0.019 1.66156,0.0191 0.92422,1.3e-4 1.71215,0.009 1.75095,0.0197 0.0388,0.0107 0.0661,0.0331 0.0606,0.0498 -0.005,0.0167 -0.10728,0.0873 -0.22628,0.1569 -0.119,0.0696 -0.22505,0.13632 -0.23567,0.14824 -0.0215,0.0242 0.11403,-0.051 0.46833,-0.25984 z m -3.57601,0.01 c 0.0467,-0.0481 0.0792,-0.0875 0.0723,-0.0875 -0.007,0 -0.0507,0.0394 -0.0973,0.0875 -0.0467,0.0481 -0.0792,0.0875 -0.0723,0.0875 0.007,0 0.0507,-0.0394 0.0973,-0.0875 z m -4.05113,-1.16283 c 0,-0.0138 0.0197,-0.0259 0.0438,-0.027 0.0251,-10e-4 0.0307,-0.007 0.0131,-0.0144 -0.0168,-0.007 -0.0559,0.005 -0.0868,0.027 -0.0459,0.0322 -0.0483,0.0394 -0.0131,0.0394 0.0237,0 0.0431,-0.0113 0.0431,-0.025 z m 7.47709,-4.32946 c 0,-0.0103 -0.073,0.0228 -0.16215,0.0735 -0.11828,0.0673 -0.14873,0.0944 -0.11253,0.10027 0.0304,0.005 0.0496,0.0275 0.0496,0.0583 0,0.0383 0.0268,0.0189 0.11253,-0.0815 0.0619,-0.0725 0.11253,-0.14027 0.11253,-0.15058 z"
         id="path4472"
         transform="scale(0.26458333)" />
    </g>
  </g>
</svg>
