<svg width="108" height="98" viewBox="0 0 108 98" fill="none" xmlns="http://www.w3.org/2000/svg">
<g filter="url(#filter0_d_384_542)">
<path d="M82.3896 39.3076C74.5433 52.8963 66.697 66.4849 58.8264 80.0736C57.1451 82.9959 58.1441 86.7461 61.0926 88.4264C64.0166 90.1068 67.7692 89.1083 69.4506 86.1617C72.7889 80.3902 76.1028 74.643 79.4411 68.8714C81.1225 65.9492 84.875 64.9264 87.7991 66.6067C90.7232 68.287 91.7466 72.0373 90.0653 74.9595C87.3361 79.6839 84.607 84.4083 81.8779 89.157C85.9716 89.157 95.2068 90.0337 99.0812 87.8176C103.784 85.1145 105.392 79.1482 102.688 74.4482C95.9134 62.7347 89.1637 50.9968 82.3896 39.2833V39.3076ZM41.1114 86.1617C39.4301 89.084 35.6775 90.1068 32.7534 88.4264C29.8293 86.7461 28.8059 82.9959 30.4873 80.0736C34.1667 73.6932 37.8462 67.3129 41.55 60.9326C43.2314 58.0103 42.2323 54.26 39.2839 52.5797C36.3598 50.8994 32.6072 51.8978 30.9259 54.8445C24.3711 66.1683 17.8406 77.5166 11.2858 88.8405C7.09465 87.7202 4 83.8969 4 79.343C4 77.2243 4.68229 75.2518 5.80318 73.6445C19.059 50.7045 32.2661 27.8133 45.4975 4.89766C48.2023 0.197642 54.221 -1.38527 58.8995 1.31785C60.4834 2.24324 61.7018 3.50955 62.5302 4.99505L75.2743 27.0583C63.8704 46.7838 52.4178 66.4849 41.0627 86.1617H41.1114Z" fill="white"/>
</g>
<defs>
<filter id="filter0_d_384_542" x="0" y="0" width="108" height="97.3281" filterUnits="userSpaceOnUse" color-interpolation-filters="sRGB">
<feFlood flood-opacity="0" result="BackgroundImageFix"/>
<feColorMatrix in="SourceAlpha" type="matrix" values="0 0 0 0 0 0 0 0 0 0 0 0 0 0 0 0 0 0 127 0" result="hardAlpha"/>
<feOffset dy="4"/>
<feGaussianBlur stdDeviation="2"/>
<feComposite in2="hardAlpha" operator="out"/>
<feColorMatrix type="matrix" values="0 0 0 0 0 0 0 0 0 0 0 0 0 0 0 0 0 0 0.25 0"/>
<feBlend mode="normal" in2="BackgroundImageFix" result="effect1_dropShadow_384_542"/>
<feBlend mode="normal" in="SourceGraphic" in2="effect1_dropShadow_384_542" result="shape"/>
</filter>
</defs>
</svg>
