<svg width="22" height="21" viewBox="0 0 22 21" fill="none" xmlns="http://www.w3.org/2000/svg">
<path fill-rule="evenodd" clip-rule="evenodd" d="M19.9414 1.5H2.94141C2.66526 1.5 2.44141 1.72386 2.44141 2V7C2.44141 7.27614 2.66526 7.5 2.94141 7.5H19.9414C20.2175 7.5 20.4414 7.27614 20.4414 7V2C20.4414 1.72386 20.2175 1.5 19.9414 1.5ZM2.94141 0C1.83684 0 0.941406 0.895431 0.941406 2V7C0.941406 8.10457 1.83684 9 2.94141 9H19.9414C21.046 9 21.9414 8.10457 21.9414 7V2C21.9414 0.895431 21.046 0 19.9414 0H2.94141Z" fill="current"/>
<path fill-rule="evenodd" clip-rule="evenodd" d="M19.9414 12.5H2.94141C2.66526 12.5 2.44141 12.7239 2.44141 13V19C2.44141 19.2761 2.66526 19.5 2.94141 19.5H19.9414C20.2175 19.5 20.4414 19.2761 20.4414 19V13C20.4414 12.7239 20.2175 12.5 19.9414 12.5ZM2.94141 11C1.83684 11 0.941406 11.8954 0.941406 13V19C0.941406 20.1046 1.83684 21 2.94141 21H19.9414C21.046 21 21.9414 20.1046 21.9414 19V13C21.9414 11.8954 21.046 11 19.9414 11H2.94141Z" fill="current"/>
</svg>
