<svg stroke="currentColor" fill="currentColor" stroke-width="0" viewBox="0 0 512 512" class="icon" height="4rem" width="4rem" xmlns="http://www.w3.org/2000/svg">
  <path d="M 418.693 63.571 C 419.599 62.651 420.823 62.129 422.101 62.129 C 423.382 62.129 424.607 62.651 425.508 63.571 L 451.016 89.626 L 476.524 63.571 C 476.972 63.104 477.502 62.725 478.09 62.468 C 478.678 62.213 479.309 62.075 479.95 62.07 C 480.591 62.065 481.222 62.188 481.815 62.435 C 482.408 62.685 482.947 63.05 483.4 63.512 C 483.853 63.975 484.21 64.521 484.451 65.127 C 484.697 65.733 484.817 66.382 484.813 67.037 C 484.808 67.687 484.673 68.336 484.422 68.937 C 484.167 69.538 483.8 70.079 483.338 70.531 L 457.83 96.585 L 483.338 122.64 C 484.22 123.57 484.702 124.81 484.692 126.105 C 484.682 127.394 484.176 128.63 483.28 129.54 C 482.388 130.451 481.179 130.973 479.916 130.983 C 478.654 130.993 477.434 130.495 476.524 129.599 L 451.016 103.545 L 425.508 129.599 C 424.602 130.495 423.382 130.993 422.12 130.983 C 420.857 130.973 419.648 130.451 418.756 129.54 C 417.86 128.63 417.354 127.394 417.344 126.105 C 417.33 124.81 417.816 123.57 418.693 122.64 L 444.201 96.585 L 418.693 70.531 C 417.792 69.611 417.286 68.356 417.286 67.051 C 417.286 65.747 417.792 64.497 418.693 63.571 Z M 26.986 122.428 C 26.986 107.414 32.827 93.017 43.222 82.399 C 53.612 71.787 67.708 65.821 82.407 65.821 L 378.873 65.821 C 375.668 74.632 373.914 84.171 373.914 94.125 C 373.914 138.982 409.513 175.343 453.43 175.343 C 459.237 175.343 464.9 174.708 470.35 173.503 L 470.35 405.462 C 470.35 420.476 464.514 434.874 454.119 445.491 C 443.724 456.104 429.628 462.07 414.93 462.07 L 82.407 462.07 C 67.708 462.07 53.612 456.104 43.222 445.491 C 32.827 434.874 26.986 420.476 26.986 405.462 L 26.986 122.428 Z M 54.696 377.159 L 54.696 405.462 C 54.696 412.97 57.617 420.171 62.812 425.477 C 68.012 430.783 75.057 433.767 82.407 433.767 L 414.93 433.767 C 422.279 433.767 429.329 430.783 434.524 425.477 C 439.724 420.171 442.64 412.97 442.64 405.462 L 442.64 306.4 L 337.982 251.295 C 335.38 249.966 332.44 249.504 329.568 249.975 C 326.7 250.448 324.05 251.831 321.992 253.928 L 219.184 358.932 L 145.475 308.778 C 142.815 306.967 139.625 306.155 136.444 306.475 C 133.258 306.794 130.285 308.226 128.02 310.536 L 54.696 377.159 Z M 193.248 193.186 C 193.248 181.929 188.872 171.13 181.074 163.165 C 173.282 155.206 162.708 150.731 151.682 150.731 C 140.661 150.731 130.087 155.206 122.295 163.165 C 114.497 171.13 110.117 181.929 110.117 193.186 C 110.117 204.449 114.497 215.243 122.295 223.208 C 130.087 231.167 140.661 235.642 151.682 235.642 C 162.708 235.642 173.282 231.167 181.074 223.208 C 188.872 215.243 193.248 204.449 193.248 193.186 Z"></path>
</svg>