<svg width="500" height="500" viewBox="0 0 500 500" fill="none" xmlns="http://www.w3.org/2000/svg">
<circle cx="250" cy="250" r="225" classname="circle" fill="#1E2024"/>
<rect classname="square" x="146" y="264.774" width="87.9743" height="90.5806" rx="15" fill="#767C8F"/>
<rect classname="square" x="266.965" y="144" width="87.9743" height="90.5806" rx="15" fill="#767C8F"/>
<path classname="square" d="M311.502 285.847C313.526 285.847 315.167 287.537 315.167 289.621V307.234H332.273C334.298 307.234 335.939 308.924 335.939 311.008C335.939 313.092 334.298 314.782 332.273 314.782H315.167V332.395C315.167 334.479 313.526 336.169 311.502 336.169C309.477 336.169 307.836 334.479 307.836 332.395V314.782H290.73C288.705 314.782 287.064 313.092 287.064 311.008C287.064 308.924 288.705 307.234 290.73 307.234H307.836V289.621C307.836 287.537 309.477 285.847 311.502 285.847ZM267.514 282.073C267.514 273.04 274.626 265.718 283.399 265.718H339.604C348.377 265.718 355.489 273.04 355.489 282.073V339.944C355.489 348.976 348.377 356.298 339.604 356.298H283.399C274.626 356.298 267.514 348.976 267.514 339.944V282.073ZM283.399 273.266C278.675 273.266 274.846 277.209 274.846 282.073V339.944C274.846 344.807 278.675 348.75 283.399 348.75H339.604C344.328 348.75 348.158 344.807 348.158 339.944V282.073C348.158 277.209 344.328 273.266 339.604 273.266H283.399Z" fill="#767C8F"/>
<rect classname="square" x="146" y="144" width="87.9743" height="90.5806" rx="15" fill="#767C8F"/>
</svg>
