<svg width="14" height="14" viewBox="0 0 14 14" fill="none" xmlns="http://www.w3.org/2000/svg">
<g clip-path="url(#clip0_1691_131324)">
<path d="M13.9999 6.08696L7.9129 0L6.69543 1.21747L7.83682 2.35871L3.1957 6.2391L3.04352 6.08692C2.72056 5.76411 2.2826 5.58267 1.82605 5.58267C1.3695 5.58267 0.931545 5.76411 0.608585 6.08692L0 6.69565L3.04352 9.73917L0 12.7827V14H1.21732L4.26083 10.9565L7.30435 14L7.91308 13.3913V13.3914C8.23589 13.0685 8.41733 12.6305 8.41733 12.1739C8.41733 11.7174 8.23589 11.2794 7.91308 10.9565L7.7609 10.8043L11.6413 6.16317L12.7827 7.30457L14.0001 6.0871L13.9999 6.08696Z" fill="currentColor"/>
</g>
<defs>
<clipPath id="clip0_1691_131324">
<rect width="14" height="14" fill="white"/>
</clipPath>
</defs>
</svg>
