<svg width="21" height="20" viewBox="0 0 21 20" fill="none" xmlns="http://www.w3.org/2000/svg">
<path fill-rule="evenodd" clip-rule="evenodd" d="M14.8759 4.06553C15.3448 4.53437 15.6081 5.17025 15.6081 5.83329L15.6081 15.4881L13.6974 13.5774C13.372 13.252 12.8443 13.252 12.5189 13.5774C12.1935 13.9028 12.1935 14.4305 12.5189 14.7559L15.8522 18.0892C15.9367 18.1737 16.0349 18.2363 16.1396 18.2769C16.2172 18.3071 16.3004 18.326 16.3872 18.3316C16.4242 18.334 16.4614 18.3339 16.4984 18.3314C16.581 18.3258 16.6602 18.3082 16.7345 18.2803C16.8425 18.2398 16.9438 18.1761 17.0307 18.0892L20.3641 14.7559C20.6895 14.4305 20.6895 13.9028 20.3641 13.5774C20.0386 13.252 19.511 13.252 19.1856 13.5774L17.2748 15.4881L17.2748 5.83329C17.2748 4.72822 16.8358 3.66842 16.0544 2.88701C15.273 2.10561 14.2132 1.66663 13.1081 1.66663L11.4415 1.66663C10.9812 1.66663 10.6081 2.03972 10.6081 2.49996C10.6081 2.9602 10.9812 3.33329 11.4415 3.33329L13.1081 3.33329C13.7712 3.33329 14.4071 3.59668 14.8759 4.06553Z" fill="currentColor"/>
<path fill-rule="evenodd" clip-rule="evenodd" d="M6.3404 15.9344C5.87156 15.4656 5.60816 14.8297 5.60816 14.1666L5.60816 4.51181L7.5189 6.42255C7.84434 6.74798 8.37197 6.74798 8.69741 6.42255C9.02285 6.09711 9.02285 5.56947 8.69741 5.24404L5.36408 1.9107C5.27958 1.8262 5.18144 1.76364 5.07675 1.72302C4.99916 1.69285 4.91592 1.67396 4.82906 1.66838C4.79206 1.66598 4.75493 1.66604 4.71794 1.66856C4.63536 1.67412 4.55607 1.69172 4.48182 1.71962C4.37379 1.76011 4.27247 1.8238 4.18557 1.9107L0.852232 5.24404C0.526795 5.56947 0.526795 6.09711 0.852232 6.42255C1.17767 6.74798 1.70531 6.74798 2.03074 6.42255L3.9415 4.51179L3.9415 14.1666C3.9415 15.2717 4.38048 16.3315 5.16189 17.1129C5.94329 17.8943 7.0031 18.3333 8.10816 18.3333H9.77483C10.2351 18.3333 10.6082 17.9602 10.6082 17.5C10.6082 17.0397 10.2351 16.6666 9.77483 16.6666H8.10816C7.44512 16.6666 6.80924 16.4033 6.3404 15.9344Z" fill="currentColor"/>
</svg>
