<svg width="21" height="20" viewBox="0 0 21 20" fill="none" xmlns="http://www.w3.org/2000/svg">
<path fill-rule="evenodd" clip-rule="evenodd" d="M3.37915 1.5C3.04763 1.5 2.72969 1.6317 2.49527 1.86612C2.26085 2.10054 2.12915 2.41848 2.12915 2.75V16.75C2.12915 17.0815 2.26085 17.3995 2.49527 17.6339C2.72969 17.8683 3.04763 18 3.37915 18H4.62915V10.75C4.62915 10.3358 4.96494 10 5.37915 10H15.3792C15.7934 10 16.1292 10.3358 16.1292 10.75V18H17.3792C17.7107 18 18.0286 17.8683 18.263 17.6339C18.4975 17.3995 18.6292 17.0815 18.6292 16.75V6.06066L14.0685 1.5H6.12915V5H13.3792C13.7934 5 14.1292 5.33579 14.1292 5.75C14.1292 6.16421 13.7934 6.5 13.3792 6.5H5.37915C4.96494 6.5 4.62915 6.16421 4.62915 5.75V1.5H3.37915ZM5.37915 0H3.37915C2.64981 0 1.95033 0.289731 1.43461 0.805456C0.918882 1.32118 0.62915 2.02065 0.62915 2.75V16.75C0.62915 17.4793 0.918882 18.1788 1.43461 18.6945C1.95033 19.2103 2.6498 19.5 3.37915 19.5H5.37915H15.3792H17.3792C18.1085 19.5 18.808 19.2103 19.3237 18.6945C19.8394 18.1788 20.1292 17.4793 20.1292 16.75V5.75C20.1292 5.55109 20.0501 5.36032 19.9095 5.21967L14.9095 0.21967C14.7688 0.0790176 14.5781 0 14.3792 0H5.37915ZM6.12915 11.5V18H14.6292V11.5H6.12915Z" fill="#E2E4EE"/>
</svg>
