<svg width="21" height="14" viewBox="0 0 25 20" fill="none" xmlns="http://www.w3.org/2000/svg">
<g clip-path="url(#clip0_134_284)">
<path fill-rule="odd" clip-rule="odd" d="M4.63416 0C5.18644 0 5.63416 0.447715 5.63416 1V8C5.63416 8.55228 5.18644 9 4.63416 9C4.08187 9 3.63416 8.55228 3.63416 8V1C3.63416 0.447715 4.08187 0 4.63416 0ZM5.63416 13H7.63416C8.18644 13 8.63416 12.5523 8.63416 12C8.63416 11.4477 8.18644 11 7.63416 11H4.63416H1.63416C1.08187 11 0.634155 11.4477 0.634155 12C0.634155 12.5523 1.08187 13 1.63416 13H3.63416V19C3.63416 19.5523 4.08187 20 4.63416 20C5.18644 20 5.63416 19.5523 5.63416 19V13ZM13.6342 10C13.6342 9.44771 13.1864 9 12.6342 9C12.0819 9 11.6342 9.44771 11.6342 10V19C11.6342 19.5523 12.0819 20 12.6342 20C13.1864 20 13.6342 19.5523 13.6342 19V10ZM12.6342 0C13.1864 0 13.6342 0.447715 13.6342 1V5H15.6342C16.1864 5 16.6342 5.44772 16.6342 6C16.6342 6.55228 16.1864 7 15.6342 7H12.6342H9.63416C9.08187 7 8.63416 6.55228 8.63416 6C8.63416 5.44772 9.08187 5 9.63416 5H11.6342V1C11.6342 0.447715 12.0819 0 12.6342 0ZM20.6342 13H23.6342C24.1864 13 24.6342 13.4477 24.6342 14C24.6342 14.5523 24.1864 15 23.6342 15H21.6342V19C21.6342 19.5523 21.1864 20 20.6342 20C20.0819 20 19.6342 19.5523 19.6342 19V15H17.6342C17.0819 15 16.6342 14.5523 16.6342 14C16.6342 13.4477 17.0819 13 17.6342 13H20.6342ZM20.6342 0C21.1864 0 21.6342 0.447715 21.6342 1V10C21.6342 10.5523 21.1864 11 20.6342 11C20.0819 11 19.6342 10.5523 19.6342 10V1C19.6342 0.447715 20.0819 0 20.6342 0Z" fill="currentColor"/>
</g>
<defs>
<clipPath id="clip0_134_284">
<rect width="24" height="20" fill="currentColor" transform="translate(0.634155)"/>
</clipPath>
</defs>
</svg>
