<svg width="15" height="11" viewBox="0 0 15 11" fill="none" xmlns="http://www.w3.org/2000/svg">
<path d="M7.33689 2.85974C6.74355 2.85974 6.16354 3.03476 5.67019 3.36267C5.17685 3.69059 4.79234 4.15666 4.56527 4.70195C4.33821 5.24725 4.2788 5.84728 4.39456 6.42616C4.51031 7.00505 4.79603 7.53679 5.21559 7.95414C5.63514 8.37149 6.16969 8.65571 6.75162 8.77086C7.33356 8.886 7.93676 8.82691 8.48493 8.60104C9.03311 8.37517 9.50164 7.99267 9.83128 7.50192C10.1609 7.01116 10.3369 6.43419 10.3369 5.84397C10.3357 5.05285 10.0193 4.29447 9.45693 3.73506C8.89457 3.17566 8.13218 2.86088 7.33689 2.85974ZM7.33689 7.50235C7.00716 7.50235 6.68484 7.40509 6.41068 7.22287C6.13652 7.04064 5.92284 6.78164 5.79666 6.47861C5.67048 6.17558 5.63746 5.84213 5.70179 5.52043C5.76612 5.19874 5.9249 4.90324 6.15805 4.67131C6.3912 4.43939 6.68826 4.28144 7.01165 4.21745C7.33504 4.15346 7.67025 4.1863 7.97488 4.31182C8.27951 4.43734 8.53988 4.6499 8.72306 4.92262C8.90625 5.19534 9.00403 5.51597 9.00403 5.84397C9.00403 6.2838 8.82838 6.70562 8.51573 7.01662C8.20309 7.32763 7.77904 7.50235 7.33689 7.50235Z" fill="currentColor"/>
<path d="M7.33713 0.868774C5.75356 0.870176 4.20703 1.34539 2.89854 2.23264C1.59005 3.1199 0.580119 4.37818 0 5.84393C0.579559 7.30984 1.58944 8.56818 2.89811 9.45506C4.20679 10.342 5.75361 10.8163 7.33713 10.8163C8.92065 10.8163 10.4675 10.342 11.7761 9.45506C13.0848 8.56818 14.0947 7.30984 14.6743 5.84393C14.0941 4.37818 13.0842 3.1199 11.7757 2.23264C10.4672 1.34539 8.9207 0.870176 7.33713 0.868774ZM7.33713 9.50619C6.10922 9.50954 4.90539 9.16748 3.86451 8.51949C2.82363 7.87149 1.98813 6.94397 1.4544 5.84393C1.99375 4.74928 2.83093 3.82707 3.87083 3.18207C4.91073 2.53706 6.11164 2.19514 7.33713 2.19514C8.56262 2.19514 9.76354 2.53706 10.8034 3.18207C11.8433 3.82707 12.6805 4.74928 13.2199 5.84393C12.6843 6.94155 11.848 7.8664 10.8073 8.51202C9.76651 9.15763 8.56365 9.49776 7.33713 9.49323V9.50619Z" fill="currentColor"/>
</svg>
