<svg width="18" height="18" viewBox="0 0 18 18" fill="none" xmlns="http://www.w3.org/2000/svg">
<path fill-rule="evenodd" clip-rule="evenodd" d="M4.5 5.25C4.5 4.00736 5.50736 3 6.75 3C7.99264 3 9 4.00736 9 5.25C9 6.49264 7.99264 7.5 6.75 7.5C5.50736 7.5 4.5 6.49264 4.5 5.25ZM6.75 1.5C4.67893 1.5 3 3.17893 3 5.25C3 7.32107 4.67893 9 6.75 9C8.82107 9 10.5 7.32107 10.5 5.25C10.5 3.17893 8.82107 1.5 6.75 1.5ZM3.75 10.5C2.75544 10.5 1.80161 10.8951 1.09835 11.5984C0.395088 12.3016 0 13.2554 0 14.25V15.75C0 16.1642 0.335786 16.5 0.75 16.5C1.16421 16.5 1.5 16.1642 1.5 15.75V14.25C1.5 13.6533 1.73705 13.081 2.15901 12.659C2.58097 12.2371 3.15326 12 3.75 12H9.75C10.3467 12 10.919 12.2371 11.341 12.659C11.7629 13.081 12 13.6533 12 14.25V15.75C12 16.1642 12.3358 16.5 12.75 16.5C13.1642 16.5 13.5 16.1642 13.5 15.75V14.25C13.5 13.2554 13.1049 12.3016 12.4017 11.5984C11.6984 10.8951 10.7446 10.5 9.75 10.5H3.75ZM14.2738 11.16C14.3774 10.7589 14.7864 10.5178 15.1875 10.6213C15.992 10.829 16.7047 11.2981 17.2138 11.9547C17.7228 12.6114 17.9994 13.4186 18 14.2494V15.75C18 16.1642 17.6642 16.5 17.25 16.5C16.8358 16.5 16.5 16.1642 16.5 15.75V14.2506C16.4996 13.7521 16.3337 13.2677 16.0283 12.8737C15.7228 12.4797 15.2952 12.1983 14.8125 12.0737C14.4114 11.9701 14.1703 11.5611 14.2738 11.16ZM12.186 1.62094C11.7848 1.5182 11.3762 1.7602 11.2734 2.16147C11.1707 2.56274 11.4127 2.97132 11.814 3.07406C12.298 3.19798 12.7269 3.47946 13.0333 3.87411C13.3396 4.26877 13.5059 4.75416 13.5059 5.25375C13.5059 5.75335 13.3396 6.23873 13.0333 6.63339C12.7269 7.02804 12.298 7.30952 11.814 7.43344C11.4127 7.53618 11.1707 7.94476 11.2734 8.34603C11.3762 8.7473 11.7848 8.9893 12.186 8.88656C12.9927 8.68003 13.7076 8.21091 14.2182 7.55315C14.7288 6.89539 15.0059 6.08641 15.0059 5.25375C15.0059 4.42109 14.7288 3.61211 14.2182 2.95435C13.7076 2.2966 12.9927 1.82747 12.186 1.62094Z" fill="currentColor"/>
</svg>
