<svg width="250" height="233" viewBox="0 0 250 233" fill="none" xmlns="http://www.w3.org/2000/svg">
<path d="M239.773 0H200.227C194.579 0 190 7.41595 190 16.564V216.436C190 225.584 194.579 233 200.227 233H239.773C245.421 233 250 225.584 250 216.436V16.564C250 7.41595 245.421 0 239.773 0Z" fill="#767C8F"/>
<path d="M144.773 0H105.227C99.5789 0 95 7.41595 95 16.564V216.436C95 225.584 99.5789 233 105.227 233H144.773C150.421 233 155 225.584 155 216.436V16.564C155 7.41595 150.421 0 144.773 0Z" fill="#767C8F"/>
<path d="M49.7727 0H10.2273C4.57891 0 0 7.41595 0 16.564V216.436C0 225.584 4.57891 233 10.2273 233H49.7727C55.4211 233 60 225.584 60 216.436V16.564C60 7.41595 55.4211 0 49.7727 0Z" fill="#767C8F"/>
</svg>
