<svg width="209" height="212" viewBox="0 0 209 212" fill="none" xmlns="http://www.w3.org/2000/svg">
<rect y="120.774" width="87.9743" height="90.5806" rx="15" fill="#767C8F"/>
<rect x="120.965" width="87.9743" height="90.5806" rx="15" fill="#767C8F"/>
<g clip-path="url(#clip0_5_20)">
<path d="M165.502 141.847C167.526 141.847 169.167 143.537 169.167 145.621V163.234H186.273C188.298 163.234 189.939 164.924 189.939 167.008C189.939 169.092 188.298 170.782 186.273 170.782H169.167V188.395C169.167 190.479 167.526 192.169 165.502 192.169C163.477 192.169 161.836 190.479 161.836 188.395V170.782H144.73C142.705 170.782 141.064 169.092 141.064 167.008C141.064 164.924 142.705 163.234 144.73 163.234H161.836V145.621C161.836 143.537 163.477 141.847 165.502 141.847ZM121.514 138.073C121.514 129.04 128.626 121.718 137.399 121.718H193.604C202.377 121.718 209.489 129.04 209.489 138.073V195.944C209.489 204.976 202.377 212.298 193.604 212.298H137.399C128.626 212.298 121.514 204.976 121.514 195.944V138.073ZM137.399 129.266C132.675 129.266 128.846 133.209 128.846 138.073V195.944C128.846 200.807 132.675 204.75 137.399 204.75H193.604C198.328 204.75 202.158 200.807 202.158 195.944V138.073C202.158 133.209 198.328 129.266 193.604 129.266H137.399Z" fill="#767C8F"/>
</g>
<rect width="87.9743" height="90.5806" rx="15" fill="#767C8F"/>
<defs>
<clipPath id="clip0_5_20">
<rect width="103" height="106" fill="white" transform="translate(106 106)"/>
</clipPath>
</defs>
</svg>
