
<svg width="16" height="17" viewBox="0 0 16 17" fill="none" xmlns="http://www.w3.org/2000/svg">
<path d="M7.99993 15.4642C11.8462 15.4642 14.9642 12.3462 14.9642 8.49993C14.9642 4.65366 11.8462 1.53564 7.99993 1.53564C4.15366 1.53564 1.03564 4.65366 1.03564 8.49993C1.03564 12.3462 4.15366 15.4642 7.99993 15.4642Z" stroke="current" stroke-width="1.21" stroke-linecap="round" stroke-linejoin="round"/>
<path d="M6.39258 6.89279C6.39258 6.57493 6.48684 6.2642 6.66343 5.99991C6.84003 5.73561 7.09103 5.52962 7.38469 5.40798C7.67836 5.28634 8.0015 5.25451 8.31326 5.31653C8.62501 5.37854 8.91138 5.5316 9.13614 5.75637C9.36091 5.98113 9.51397 6.2675 9.57598 6.57925C9.638 6.89101 9.60617 7.21415 9.48453 7.50782C9.36289 7.80148 9.1569 8.05248 8.8926 8.22908C8.62831 8.40567 8.31758 8.49993 7.99972 8.49993V9.57136" stroke="current" stroke-width="1.21" stroke-linecap="round" stroke-linejoin="round"/>
<path d="M7.99986 11.1785C7.84093 11.1785 7.68557 11.2256 7.55342 11.3139C7.42127 11.4022 7.31828 11.5277 7.25746 11.6745C7.19664 11.8214 7.18072 11.9829 7.21173 12.1388C7.24274 12.2947 7.31927 12.4379 7.43165 12.5502C7.54403 12.6626 7.68721 12.7392 7.84309 12.7702C7.99897 12.8012 8.16054 12.7853 8.30737 12.7244C8.45421 12.6636 8.57971 12.5606 8.66801 12.4285C8.7563 12.2963 8.80343 12.141 8.80343 11.982C8.80066 11.7698 8.71511 11.567 8.565 11.4169C8.4149 11.2668 8.21212 11.1812 7.99986 11.1785Z" fill="current"/>
</svg>
