<svg width="14" height="14" viewBox="0 0 14 14" fill="none" xmlns="http://www.w3.org/2000/svg">
<path fill-rule="evenodd" clip-rule="evenodd" d="M7.9129 0L6.69543 1.21746L7.83682 2.35871L3.1957 6.2391L3.04351 6.08692C2.72056 5.76411 2.2826 5.58267 1.82605 5.58267C1.3695 5.58267 0.931545 5.76411 0.608585 6.08692L0 6.69565L3.04351 9.73917L0 12.7827V14H1.21732L4.26083 10.9565L7.30435 14L7.91294 13.3914C8.23566 13.0685 8.41733 12.6304 8.41733 12.1739C8.41733 12.1377 8.41619 12.1015 8.41391 12.0655C8.38759 11.6485 8.21023 11.2538 7.91308 10.9565L7.7609 10.8043L11.6413 6.16317L12.7827 7.30456L14.0001 6.0871L7.9129 0ZM12.7827 6.47961L13.1751 6.08718L7.9129 0.824958L7.52041 1.21744L8.70027 2.39715L3.16052 7.02888L2.63113 6.49949C2.6311 6.49946 2.63116 6.49952 2.63113 6.49949C2.41751 6.28601 2.1278 6.166 1.82605 6.166C1.52426 6.166 1.23461 6.28595 1.02097 6.49949L0.824908 6.6956L3.86847 9.73917L0.583333 13.0243V13.4167H0.975694L4.26083 10.1315L7.30435 13.175L7.51104 12.9683C7.71799 12.7558 7.834 12.4707 7.834 12.1739C7.834 11.8722 7.71408 11.5826 7.5006 11.369C7.50057 11.3689 7.50063 11.369 7.5006 11.369L6.97112 10.8395L11.6028 5.29975L12.7827 6.47961Z" fill="#C2C5D6"/>
</svg>
