<svg width="7" height="8" viewBox="0 0 7 8" fill="none" xmlns="http://www.w3.org/2000/svg">
<path fill-rule="evenodd" clip-rule="evenodd" d="M0.117157 3.48294C-0.0390525 3.32673 -0.0390525 3.07346 0.117157 2.91725L2.91716 0.117255C3.07337 -0.0389548 3.32663 -0.0389549 3.48284 0.117255L6.28284 2.91725C6.43905 3.07346 6.43905 3.32673 6.28284 3.48294C6.12663 3.63915 5.87337 3.63915 5.71716 3.48294L3.2 0.965783L0.682843 3.48294C0.526633 3.63915 0.273367 3.63915 0.117157 3.48294Z" fill="#6DD230"/>
<path fill-rule="evenodd" clip-rule="evenodd" d="M3.1998 8C2.97889 8 2.7998 7.83797 2.7998 7.6381L2.7998 0.761905C2.7998 0.56203 2.97889 0.4 3.1998 0.4C3.42072 0.4 3.5998 0.56203 3.5998 0.761905L3.5998 7.6381C3.5998 7.83797 3.42072 8 3.1998 8Z" fill="#6DD230"/>
</svg>
