<svg width="6" height="6" viewBox="0 0 6 6" fill="none" xmlns="http://www.w3.org/2000/svg">
<path fill-rule="evenodd" clip-rule="evenodd" d="M4.72488 1.63892C4.8253 1.5385 4.8253 1.37569 4.72488 1.27527C4.62446 1.17485 4.46165 1.17485 4.36123 1.27527L3.0002 2.6363L1.63917 1.27527C1.53875 1.17485 1.37593 1.17485 1.27551 1.27527C1.17509 1.37569 1.17509 1.5385 1.27551 1.63892L2.63654 2.99995L1.27551 4.36098C1.17509 4.4614 1.17509 4.62422 1.27551 4.72464C1.37593 4.82506 1.53875 4.82506 1.63917 4.72464L3.0002 3.36361L4.36123 4.72464C4.46165 4.82506 4.62446 4.82506 4.72488 4.72464C4.8253 4.62422 4.8253 4.4614 4.72488 4.36098L3.36385 2.99995L4.72488 1.63892Z" fill="#C2C5D6"/>
</svg>
