<svg width="22" height="22" viewBox="0 0 14 15" fill="none" xmlns="http://www.w3.org/2000/svg"><path fill-rule="evenodd" clip-rule="evenodd" d="M12.5994 4.87054C12.8671 4.60275 12.8671 4.16858 12.5994 3.90079C12.3316 3.633 11.8974 3.633 11.6296 3.90079L8.0002 7.5302L4.37078 3.90079C4.10299 3.633 3.66882 3.633 3.40104 3.90079C3.13325 4.16858 3.13325 4.60275 3.40104 4.87054L7.03045 8.49995L3.40104 12.1294C3.13325 12.3972 3.13325 12.8313 3.40104 13.0991C3.66882 13.3669 4.10299 13.3669 4.37078 13.0991L8.0002 9.4697L11.6296 13.0991C11.8974 13.3669 12.3316 13.3669 12.5994 13.0991C12.8671 12.8313 12.8671 12.3972 12.5994 12.1294L8.96994 8.49995L12.5994 4.87054Z" fill="current"></path></svg>
