<svg width="21" height="20" viewBox="0 0 21 20" fill="none" xmlns="http://www.w3.org/2000/svg">
<g clip-path="url(#clip0_307_12339)">
<path fill-rule="evenodd" clip-rule="evenodd" d="M3.66919 5C3.40397 5 3.14962 5.10536 2.96208 5.29289C2.77455 5.48043 2.66919 5.73478 2.66919 6V17C2.66919 17.2652 2.77455 17.5196 2.96208 17.7071C3.14962 17.8946 3.40397 18 3.66919 18H14.6692C14.9344 18 15.1888 17.8946 15.3763 17.7071C15.5638 17.5196 15.6692 17.2652 15.6692 17V11C15.6692 10.4477 16.1169 10 16.6692 10C17.2215 10 17.6692 10.4477 17.6692 11V17C17.6692 17.7957 17.3531 18.5587 16.7905 19.1213C16.2279 19.6839 15.4648 20 14.6692 20H3.66919C2.87354 20 2.11048 19.6839 1.54787 19.1213C0.98526 18.5587 0.669189 17.7956 0.669189 17V6C0.669189 5.20435 0.98526 4.44129 1.54787 3.87868C2.11048 3.31607 2.87354 3 3.66919 3H9.66919C10.2215 3 10.6692 3.44772 10.6692 4C10.6692 4.55228 10.2215 5 9.66919 5H3.66919Z" fill="white"/>
<path fill-rule="evenodd" clip-rule="evenodd" d="M12.6692 1C12.6692 0.447715 13.1169 0 13.6692 0H19.6692C20.2215 0 20.6692 0.447715 20.6692 1V7C20.6692 7.55228 20.2215 8 19.6692 8C19.1169 8 18.6692 7.55228 18.6692 7V2H13.6692C13.1169 2 12.6692 1.55228 12.6692 1Z" fill="white"/>
<path fill-rule="evenodd" clip-rule="evenodd" d="M20.3763 0.292893C20.7668 0.683417 20.7668 1.31658 20.3763 1.70711L9.3763 12.7071C8.98577 13.0976 8.35261 13.0976 7.96208 12.7071C7.57156 12.3166 7.57156 11.6834 7.96208 11.2929L18.9621 0.292893C19.3526 -0.0976311 19.9858 -0.0976311 20.3763 0.292893Z" fill="white"/>
</g>
<defs>
<clipPath id="clip0_307_12339">
<rect width="20" height="20" fill="white" transform="translate(0.669189)"/>
</clipPath>
</defs>
</svg>
