<svg width="16" height="16" viewBox="0 0 16 16" fill="none" xmlns="http://www.w3.org/2000/svg">
<path fill-rule="evenodd" clip-rule="evenodd" d="M7.19999 1.6C4.1072 1.6 1.6 4.1072 1.6 7.19999C1.6 10.2928 4.1072 12.8 7.19999 12.8C10.2928 12.8 12.8 10.2928 12.8 7.19999C12.8 4.1072 10.2928 1.6 7.19999 1.6ZM0 7.19999C0 3.22355 3.22355 0 7.19999 0C11.1764 0 14.4 3.22355 14.4 7.19999C14.4 11.1764 11.1764 14.4 7.19999 14.4C3.22355 14.4 0 11.1764 0 7.19999Z" fill="current"/>
<path fill-rule="evenodd" clip-rule="evenodd" d="M11.1542 11.1544C11.4667 10.8419 11.9732 10.8419 12.2856 11.1544L15.7656 14.6344C16.078 14.9468 16.078 15.4533 15.7656 15.7657C15.4532 16.0781 14.9467 16.0781 14.6342 15.7657L11.1542 12.2857C10.8418 11.9733 10.8418 11.4668 11.1542 11.1544Z" fill="current"/>
</svg>
