<svg width="45" height="44" viewBox="0 0 45 44" fill="none" xmlns="http://www.w3.org/2000/svg">
<mask id="mask0_4_16" style="mask-type:alpha" maskUnits="userSpaceOnUse" x="0" y="0" width="45" height="44">
<rect width="45" height="44" fill="#D9D9D9"/>
</mask>
<g mask="url(#mask0_4_16)">
<path d="M11.1873 21.7163H39.7073" stroke="current" stroke-width="2.75" stroke-linecap="round" stroke-linejoin="round"/>
<path d="M39.6437 21.7505L7.88282 36.6587C7.70182 36.7259 7.50533 36.7398 7.31669 36.6986C7.12805 36.6574 6.9552 36.563 6.81867 36.4264C6.68214 36.2899 6.58769 36.1171 6.54652 35.9284C6.50536 35.7398 6.51922 35.5433 6.58645 35.3623L11.1237 21.7505L6.58645 8.13868C6.51922 7.95769 6.50536 7.7612 6.54652 7.57256C6.58768 7.38392 6.68214 7.21106 6.81867 7.07454C6.9552 6.93801 7.12805 6.84355 7.31669 6.80239C7.50533 6.76122 7.70182 6.77508 7.88282 6.84232L39.6437 21.7505Z" stroke="current" stroke-width="2.75" stroke-linecap="round" stroke-linejoin="round"/>
</g>
</svg>
