<svg width="14" height="14" viewBox="0 0 14 14" fill="none" xmlns="http://www.w3.org/2000/svg">
<path fill-rule="evenodd" clip-rule="evenodd" d="M4.66667 1H1.33333C1.14924 1 1 1.14924 1 1.33333V4.66667C1 4.85076 1.14924 5 1.33333 5H4.66667C4.85076 5 5 4.85076 5 4.66667V1.33333C5 1.14924 4.85076 1 4.66667 1ZM1.33333 0C0.596954 0 0 0.596954 0 1.33333V4.66667C0 5.40305 0.596954 6 1.33333 6H4.66667C5.40305 6 6 5.40305 6 4.66667V1.33333C6 0.596954 5.40305 0 4.66667 0H1.33333Z" fill="#C2C5D6"/>
<path fill-rule="evenodd" clip-rule="evenodd" d="M12.6673 1H8.66732C8.48322 1 8.33398 1.14924 8.33398 1.33333V4.66667C8.33398 4.85076 8.48322 5 8.66732 5H12.6673C12.8514 5 13.0007 4.85076 13.0007 4.66667V1.33333C13.0007 1.14924 12.8514 1 12.6673 1ZM8.66732 0C7.93094 0 7.33398 0.596954 7.33398 1.33333V4.66667C7.33398 5.40305 7.93094 6 8.66732 6H12.6673C13.4037 6 14.0007 5.40305 14.0007 4.66667V1.33333C14.0007 0.596954 13.4037 0 12.6673 0H8.66732Z" fill="#C2C5D6"/>
<path fill-rule="evenodd" clip-rule="evenodd" d="M12.6673 8.33337H6.66732C6.48322 8.33337 6.33398 8.48261 6.33398 8.66671V12.6667C6.33398 12.8508 6.48322 13 6.66732 13H12.6673C12.8514 13 13.0007 12.8508 13.0007 12.6667V8.66671C13.0007 8.48261 12.8514 8.33337 12.6673 8.33337ZM6.66732 7.33337C5.93094 7.33337 5.33398 7.93033 5.33398 8.66671V12.6667C5.33398 13.4031 5.93094 14 6.66732 14H12.6673C13.4037 14 14.0007 13.4031 14.0007 12.6667V8.66671C14.0007 7.93033 13.4037 7.33337 12.6673 7.33337H6.66732Z" fill="#C2C5D6"/>
<path fill-rule="evenodd" clip-rule="evenodd" d="M2.66667 8.33337H1.33333C1.14924 8.33337 1 8.48261 1 8.66671V12.6667C1 12.8508 1.14924 13 1.33333 13H2.66667C2.85076 13 3 12.8508 3 12.6667V8.66671C3 8.48261 2.85076 8.33337 2.66667 8.33337ZM1.33333 7.33337C0.596954 7.33337 0 7.93033 0 8.66671V12.6667C0 13.4031 0.596954 14 1.33333 14H2.66667C3.40305 14 4 13.4031 4 12.6667V8.66671C4 7.93033 3.40305 7.33337 2.66667 7.33337H1.33333Z" fill="#C2C5D6"/>
</svg>
