<svg width="25" height="24" viewBox="0 0 25 24" fill="none" xmlns="http://www.w3.org/2000/svg">
<path d="M18.8087 8C18.8087 6.4087 18.1766 4.88258 17.0514 3.75736C15.9261 2.63214 14.4 2 12.8087 2C11.2174 2 9.69129 2.63214 8.56608 3.75736C7.44086 4.88258 6.80872 6.4087 6.80872 8C6.80872 15 3.80872 17 3.80872 17H21.8087C21.8087 17 18.8087 15 18.8087 8Z" stroke="white" stroke-width="1.5" stroke-linecap="round" stroke-linejoin="round"/>
<path d="M14.5387 21C14.3629 21.3031 14.1106 21.5547 13.807 21.7295C13.5033 21.9044 13.1591 21.9965 12.8087 21.9965C12.4584 21.9965 12.1141 21.9044 11.8105 21.7295C11.5069 21.5547 11.2545 21.3031 11.0787 21" stroke="white" stroke-width="1.5" stroke-linecap="round" stroke-linejoin="round"/>
</svg>
