<svg width="18" height="18" viewBox="0 0 18 18" fill="none" xmlns="http://www.w3.org/2000/svg">
<path fill-rule="evenodd" clip-rule="evenodd" d="M9 2.25C9.41421 2.25 9.75 2.58579 9.75 3V15C9.75 15.4142 9.41421 15.75 9 15.75C8.58579 15.75 8.25 15.4142 8.25 15V3C8.25 2.58579 8.58579 2.25 9 2.25ZM13.5 6.75C13.9142 6.75 14.25 7.08579 14.25 7.5V15C14.25 15.4142 13.9142 15.75 13.5 15.75C13.0858 15.75 12.75 15.4142 12.75 15V7.5C12.75 7.08579 13.0858 6.75 13.5 6.75ZM5.25 10.5C5.25 10.0858 4.91421 9.75 4.5 9.75C4.08579 9.75 3.75 10.0858 3.75 10.5V15C3.75 15.4142 4.08579 15.75 4.5 15.75C4.91421 15.75 5.25 15.4142 5.25 15V10.5Z" fill="#767C8F"/>
</svg>
