<?xml version="1.0" encoding="UTF-8" standalone="no"?>
<svg
   version="1.0"
   width="2000.000000pt"
   height="2000.000000pt"
   viewBox="0 0 2000.000000 2000.000000"
   preserveAspectRatio="xMidYMid meet"
   id="svg10"
   xmlns="http://www.w3.org/2000/svg">
  <defs
     id="defs14" />
  <g
     transform="translate(0.000000,2000.000000) scale(0.100000,-0.100000)"
     fill="#767C8F"
     stroke="none"
     id="g8">
    <path
       d="M10110 15650 c-1353 -96 -2582 -612 -3574 -1499 -972 -871 -1631 -2035 -1870 -3303 -37 -197 -71 -446 -82 -598 -12 -170 33 -298 140 -406 99 -99 210 -144 352 -144 212 0 389 123 462 321 13 36 27 115 37 215 117 1142 613 2183 1425 2994 834 833 1910 1331 3095 1431 180 15 590 15 770 0 952 -81 1847 -421 2600 -989 364 -275 724 -637 990 -997 115 -154 168 -235 155 -235 -6 0 -345 32 -753 71 -494 47 -760 68 -795 64 -122 -15 -228 -70 -312 -162 -239 -261 -129 -679 208 -792 49 -17 314 -45 1379 -146 725 -69 1341 -125 1369 -125 115 0 253 60 340 147 59 59 119 171 133 248 5 28 66 641 137 1363 143 1468 138 1374 71 1516 -97 205 -341 318 -560 261 -187 -49 -335 -207 -366 -392 -7 -37 -39 -347 -72 -688 -33 -341 -61 -624 -62 -630 -2 -5 -44 45 -94 110 -562 746 -1276 1338 -2108 1750 -670 332 -1349 525 -2105 600 -185 19 -732 27 -910 15z"
       id="path2" />
    <path
       d="M10250 12136 l0 -153 -62 -7 c-160 -19 -404 -99 -553 -183 -434 -245 -651 -638 -632 -1143 17 -454 184 -725 584 -946 120 -66 358 -161 531 -210 l132 -38 0 -458 0 -458 -72 26 c-206 74 -485 248 -721 448 -37 31 -70 56 -74 55 -10 0 -568 -677 -568 -688 0 -11 113 -105 239 -199 326 -241 699 -410 1081 -487 l110 -22 3 -227 2 -226 330 0 330 0 0 215 c0 164 3 216 13 219 6 2 68 13 137 25 474 83 857 347 1035 716 74 154 104 290 112 500 10 316 -61 563 -218 761 -176 221 -535 414 -1021 549 l-58 16 0 439 c0 261 4 440 9 440 20 0 191 -65 276 -104 108 -51 205 -106 338 -193 54 -36 100 -63 102 -61 16 17 495 711 495 718 0 21 -295 198 -470 282 -203 97 -454 180 -647 214 l-103 17 0 159 0 158 -330 0 -330 0 0 -154z m0 -1362 l0 -355 -42 23 c-74 41 -152 122 -184 190 -26 56 -29 73 -29 163 1 88 4 106 27 150 34 65 89 117 163 154 33 17 61 31 63 31 1 0 2 -160 2 -356z m773 -1566 c37 -22 83 -53 102 -69 112 -98 127 -324 33 -465 -37 -54 -131 -123 -202 -147 l-46 -16 0 375 0 375 23 -6 c12 -4 53 -25 90 -47z"
       id="path4" />
    <path
       d="M15746 9789 c-147 -51 -259 -163 -312 -313 -8 -22 -24 -121 -34 -220 -81 -737 -306 -1411 -677 -2024 -345 -570 -805 -1072 -1343 -1463 -654 -474 -1451 -790 -2255 -893 -401 -51 -843 -51 -1255 0 -838 104 -1666 441 -2355 959 -385 290 -698 604 -989 992 -118 158 -273 390 -265 397 2 2 382 -32 844 -76 946 -91 914 -90 1054 -22 341 167 364 647 40 855 -98 62 -87 61 -1487 194 -725 69 -1340 125 -1368 125 -197 0 -395 -148 -455 -341 -14 -45 -53 -408 -150 -1393 -144 -1476 -140 -1397 -79 -1532 37 -81 130 -180 209 -223 198 -105 430 -73 586 84 68 68 118 156 134 238 6 29 33 288 61 577 28 289 51 534 53 545 1 14 31 -17 103 -110 291 -372 632 -716 999 -1007 825 -652 1813 -1078 2850 -1227 304 -44 457 -54 825 -55 373 -1 494 6 818 50 1768 237 3352 1285 4283 2834 395 658 664 1418 773 2183 40 280 49 399 36 477 -31 182 -164 337 -337 390 -89 27 -226 27 -307 -1z"
       id="path6" />
  </g>
</svg>
