<?xml version="1.0" encoding="UTF-8"?>
<svg width="20px" height="20px" version="1.1" viewBox="0 0 700 700" xmlns="http://www.w3.org/2000/svg" xmlns:xlink="http://www.w3.org/1999/xlink">
 <g>
  <path d="m395.73 95.898c1.2461 6.0039 1.2461 12.199 0 18.203-1.1641 6.0078-3.5234 11.723-6.9414 16.797-1.7188 2.5508-3.6719 4.9336-5.8359 7.1172-8.7695 8.6992-20.605 13.602-32.957 13.652-3.0586 0.011719-6.1094-0.30469-9.1016-0.93359-2.9961-0.58203-5.9258-1.4609-8.75-2.625-2.8164-1.1719-5.5117-2.6172-8.0469-4.3164-2.5508-1.7188-4.9336-3.6719-7.1172-5.8359-2.1836-2.168-4.1367-4.5508-5.8359-7.1172-1.6953-2.5352-3.1445-5.2305-4.3164-8.0469-1.1641-2.8242-2.043-5.7539-2.625-8.75-1.2422-6.0039-1.2422-12.199 0-18.203 0.58203-2.9961 1.4609-5.9258 2.625-8.75 1.1719-2.8164 2.6211-5.5117 4.3164-8.0469 3.3594-5.1445 7.75-9.5352 12.895-12.895 2.5352-1.6953 5.2305-3.1445 8.0469-4.3164 2.8242-1.1641 5.7539-2.043 8.75-2.625 15.285-3.0586 31.082 1.7109 42.117 12.719 2.1641 2.1836 4.1172 4.5664 5.8359 7.1172 1.6992 2.5352 3.1445 5.2305 4.3164 8.0469 1.168 2.8438 2.0469 5.793 2.625 8.8086zm-2.625 166.25c-1.1719-2.8164-2.6172-5.5117-4.3164-8.0469-3.3594-5.1445-7.75-9.5352-12.895-12.895-2.5352-1.6992-5.2305-3.1445-8.0469-4.3164-2.8242-1.1641-5.7539-2.043-8.75-2.625-15.281-3.0586-31.082 1.7109-42.117 12.719-2.1641 2.1836-4.1172 4.5664-5.8359 7.1172-1.6953 2.5352-3.1445 5.2305-4.3164 8.0469-1.1641 2.8242-2.043 5.7539-2.625 8.75-0.60938 2.9961-0.90234 6.0469-0.875 9.1016 0 12.375 4.918 24.246 13.668 33 8.7539 8.75 20.625 13.668 33 13.668 3.0586 0.011719 6.1094-0.30469 9.1016-0.93359 2.9961-0.58203 5.9258-1.4609 8.75-2.625 2.8164-1.1719 5.5117-2.6172 8.0469-4.3164 2.5508-1.7188 4.9336-3.6719 7.1172-5.8359 8.6992-8.7695 13.602-20.605 13.652-32.957 0.007812-3.0586-0.30469-6.1094-0.93359-9.1016-0.58203-2.9961-1.4609-5.9258-2.625-8.75zm0 175c-1.1719-2.8164-2.6172-5.5117-4.3164-8.0469-1.7188-2.5508-3.6719-4.9336-5.8359-7.1172-2.168-2.1836-4.5508-4.1367-7.1172-5.8359-2.5352-1.6953-5.2305-3.1445-8.0469-4.3164-14.391-5.9492-30.801-4.332-43.75 4.3164-2.5664 1.6992-4.9492 3.6523-7.1172 5.8359-2.1641 2.1836-4.1172 4.5664-5.8359 7.1172-1.6953 2.5352-3.1445 5.2305-4.3164 8.0469-1.1641 2.8242-2.043 5.7539-2.625 8.75-1.2422 6.0039-1.2422 12.199 0 18.203 0.58203 2.9961 1.4609 5.9258 2.625 8.75 1.1719 2.8164 2.6211 5.5117 4.3164 8.0469 1.7188 2.5508 3.6719 4.9336 5.8359 7.1172 2.168 2.1836 4.5508 4.1367 7.1172 5.8359 2.5352 1.6953 5.2305 3.1445 8.0469 4.3164 2.8242 1.1641 5.7539 2.043 8.75 2.625 6.0039 1.2422 12.199 1.2422 18.203 0 2.9961-0.58203 5.9258-1.4609 8.75-2.625 2.8164-1.1719 5.5117-2.6211 8.0469-4.3164 2.5664-1.6992 4.9492-3.6523 7.1172-5.8359 2.1641-2.1836 4.1172-4.5664 5.8359-7.1172 3.418-5.0742 5.7773-10.789 6.9414-16.797 1.2461-6.0039 1.2461-12.199 0-18.203-0.58203-2.9961-1.4609-5.9258-2.625-8.75z"/>
   </g>
</svg>
