<svg width="14" height="14" viewBox="0 0 14 14" fill="none" xmlns="http://www.w3.org/2000/svg">
<g clip-path="url(#clip0_1955_3834)">
<path fill-rule="evenodd" clip-rule="evenodd" d="M8.6001 0.925C8.6001 0.552208 8.90231 0.25 9.2751 0.25H13.3251C13.6979 0.25 14.0001 0.552208 14.0001 0.925V4.975C14.0001 5.34779 13.6979 5.65 13.3251 5.65C12.9523 5.65 12.6501 5.34779 12.6501 4.975V1.6H9.2751C8.90231 1.6 8.6001 1.29779 8.6001 0.925Z" fill="#767C8F"/>
<path fill-rule="evenodd" clip-rule="evenodd" d="M1.175 8.34998C1.54779 8.34998 1.85 8.65218 1.85 9.02498V12.4H5.225C5.59779 12.4 5.9 12.7022 5.9 13.075C5.9 13.4478 5.59779 13.75 5.225 13.75H1.175C0.802208 13.75 0.5 13.4478 0.5 13.075V9.02498C0.5 8.65218 0.802208 8.34998 1.175 8.34998Z" fill="#767C8F"/>
<path fill-rule="evenodd" clip-rule="evenodd" d="M13.8021 0.447703C14.0657 0.711307 14.0657 1.13869 13.8021 1.4023L9.0771 6.1273C8.8135 6.3909 8.38611 6.3909 8.12251 6.1273C7.8589 5.86369 7.8589 5.43631 8.12251 5.1727L12.8475 0.447703C13.1111 0.184099 13.5385 0.184099 13.8021 0.447703Z" fill="#767C8F"/>
<path fill-rule="evenodd" clip-rule="evenodd" d="M6.3773 7.87275C6.6409 8.13636 6.6409 8.56374 6.3773 8.82735L1.6523 13.5523C1.38869 13.8159 0.961307 13.8159 0.697703 13.5523C0.434099 13.2887 0.434099 12.8614 0.697703 12.5978L5.4227 7.87275C5.68631 7.60915 6.11369 7.60915 6.3773 7.87275Z" fill="#767C8F"/>
</g>
<defs>
<clipPath id="clip0_1955_3834">
<rect width="13.5" height="13.5" fill="white" transform="translate(0.5 0.25)"/>
</clipPath>
</defs>
</svg>
