<?xml version="1.0" encoding="UTF-8"?>
<svg width="700pt" height="700pt" version="1.1" viewBox="0 0 700 700" xmlns="http://www.w3.org/2000/svg">
 <path d="m350 17.5c-144.88 0-262.5 117.62-262.5 262.5s117.62 262.5 262.5 262.5 262.5-117.62 262.5-262.5-117.62-262.5-262.5-262.5zm0 35c125.56 0 227.5 101.94 227.5 227.5s-101.94 227.5-227.5 227.5-227.5-101.94-227.5-227.5 101.94-227.5 227.5-227.5zm-148.75 183.75c24.148 0 43.75 19.602 43.75 43.75s-19.602 43.75-43.75 43.75-43.75-19.602-43.75-43.75 19.602-43.75 43.75-43.75zm148.75 0c24.148 0 43.75 19.602 43.75 43.75s-19.602 43.75-43.75 43.75-43.75-19.602-43.75-43.75 19.602-43.75 43.75-43.75zm148.75 0c24.148 0 43.75 19.602 43.75 43.75s-19.602 43.75-43.75 43.75-43.75-19.602-43.75-43.75 19.602-43.75 43.75-43.75z" fill-rule="evenodd" fill="#767C8F"/>
</svg>
