<svg width="25" height="24" viewBox="0 0 25 24" fill="none" xmlns="http://www.w3.org/2000/svg">
<path fill-rule="evenodd" clip-rule="evenodd" d="M3.05872 6C3.05872 5.58579 3.3945 5.25 3.80872 5.25H21.8087C22.2229 5.25 22.5587 5.58579 22.5587 6C22.5587 6.41421 22.2229 6.75 21.8087 6.75H3.80872C3.3945 6.75 3.05872 6.41421 3.05872 6Z" fill="currentColor"/>
<path fill-rule="evenodd" clip-rule="evenodd" d="M10.8087 2.75C10.4772 2.75 10.1593 2.8817 9.92483 3.11612C9.69041 3.35054 9.55872 3.66848 9.55872 4V5.25H16.0587V4C16.0587 3.66848 15.927 3.35054 15.6926 3.11612C15.4582 2.8817 15.1402 2.75 14.8087 2.75H10.8087ZM17.5587 5.25V4C17.5587 3.27065 17.269 2.57118 16.7533 2.05546C16.2375 1.53973 15.5381 1.25 14.8087 1.25H10.8087C10.0794 1.25 9.3799 1.53973 8.86417 2.05546C8.34845 2.57118 8.05872 3.27065 8.05872 4V5.25H5.80872C5.3945 5.25 5.05872 5.58579 5.05872 6V20C5.05872 20.7293 5.34845 21.4288 5.86417 21.9445C6.3799 22.4603 7.07937 22.75 7.80872 22.75H17.8087C18.5381 22.75 19.2375 22.4603 19.7533 21.9445C20.269 21.4288 20.5587 20.7293 20.5587 20V6C20.5587 5.58579 20.2229 5.25 19.8087 5.25H17.5587ZM6.55872 6.75V20C6.55872 20.3315 6.69041 20.6495 6.92483 20.8839C7.15925 21.1183 7.4772 21.25 7.80872 21.25H17.8087C18.1402 21.25 18.4582 21.1183 18.6926 20.8839C18.927 20.6495 19.0587 20.3315 19.0587 20V6.75H6.55872Z" fill="currentColor"/>
<path fill-rule="evenodd" clip-rule="evenodd" d="M10.8087 10.25C11.2229 10.25 11.5587 10.5858 11.5587 11V17C11.5587 17.4142 11.2229 17.75 10.8087 17.75C10.3945 17.75 10.0587 17.4142 10.0587 17V11C10.0587 10.5858 10.3945 10.25 10.8087 10.25Z" fill="currentColor"/>
<path fill-rule="evenodd" clip-rule="evenodd" d="M14.8087 10.25C15.2229 10.25 15.5587 10.5858 15.5587 11V17C15.5587 17.4142 15.2229 17.75 14.8087 17.75C14.3945 17.75 14.0587 17.4142 14.0587 17V11C14.0587 10.5858 14.3945 10.25 14.8087 10.25Z" fill="currentColor"/>
</svg>
