<svg width="18" height="18" viewBox="0 0 18 18" fill="none" xmlns="http://www.w3.org/2000/svg">
<path d="M7.99994 1L7.49994 0L6.99994 1L5.99994 1.125L6.83394 1.833L6.49994 3L7.49994 2.334L8.49994 3L8.16594 1.833L8.99994 1.125L7.99994 1ZM16.3339 11.666L15.4999 10L14.6659 11.666L12.9999 11.875L14.3889 13.056L13.8339 15L15.4999 13.889L17.1659 15L16.6109 13.056L17.9999 11.875L16.3339 11.666ZM3.66694 3.333L2.99994 2L2.33294 3.333L0.99994 3.5L2.11094 4.444L1.66694 6L2.99994 5.111L4.33294 6L3.88894 4.444L4.99994 3.5L3.66694 3.333ZM0.41394 14C0.41394 14.534 0.62194 15.036 0.99994 15.414L2.58594 17C2.96394 17.378 3.46594 17.586 3.99994 17.586C4.53394 17.586 5.03594 17.378 5.41394 17L16.9999 5.414C17.3779 5.036 17.5859 4.534 17.5859 4C17.5859 3.466 17.3779 2.964 16.9999 2.586L15.4139 1C14.6579 0.244 13.3419 0.244 12.5859 1L0.99994 12.586C0.62194 12.964 0.41394 13.466 0.41394 14ZM13.9999 2.414L15.5859 4L11.9999 7.586L10.4139 6L13.9999 2.414Z" fill="currentColor"/>
</svg>
