<svg width="20" height="18" viewBox="0 0 20 18" fill="none" xmlns="http://www.w3.org/2000/svg">
<path fill-rule="evenodd" clip-rule="evenodd" d="M10.361 0C10.687 0 10.9846 0.185029 11.1289 0.477296L13.5759 5.43465L19.0481 6.2345C19.3706 6.28163 19.6384 6.50771 19.7389 6.81771C19.8394 7.1277 19.7552 7.46788 19.5218 7.69526L15.5628 11.5513L16.4971 16.9989C16.5522 17.3202 16.4202 17.6449 16.1564 17.8365C15.8927 18.0281 15.5431 18.0533 15.2546 17.9016L10.361 15.3281L5.46751 17.9016C5.179 18.0533 4.82937 18.0281 4.56564 17.8365C4.30191 17.6449 4.16982 17.3202 4.22492 16.9989L5.15925 11.5513L1.20027 7.69526C0.96682 7.46788 0.882667 7.1277 0.983181 6.81771C1.08369 6.50771 1.35145 6.28163 1.67391 6.2345L7.14615 5.43465L9.59315 0.477296C9.73742 0.185029 10.0351 0 10.361 0ZM10.361 2.79099L8.48285 6.59597C8.35822 6.84845 8.11744 7.02354 7.83883 7.06426L3.6375 7.67835L6.67688 10.6387C6.87887 10.8354 6.97106 11.119 6.9234 11.3969L6.20628 15.578L9.96245 13.6027C10.212 13.4715 10.5101 13.4715 10.7596 13.6027L14.5158 15.578L13.7987 11.3969C13.751 11.119 13.8432 10.8354 14.0452 10.6387L17.0846 7.67835L12.8832 7.06426C12.6046 7.02354 12.3638 6.84845 12.2392 6.59597L10.361 2.79099Z" fill="white"/>
</svg>
