<svg width="20" height="18" viewBox="0 0 20 18" fill="none" xmlns="http://www.w3.org/2000/svg">
<path fill-rule="evenodd" clip-rule="evenodd" d="M10.2003 0C10.5262 0 10.8239 0.185029 10.9681 0.477296L13.4151 5.43465L18.8874 6.2345C19.2098 6.28163 19.4776 6.50771 19.5781 6.81771C19.6786 7.1277 19.5945 7.46788 19.361 7.69526L15.402 11.5513L16.3364 16.9989C16.3915 17.3202 16.2594 17.6449 15.9957 17.8365C15.7319 18.0281 15.3823 18.0533 15.0938 17.9016L10.2003 15.3281L5.30674 17.9016C5.01823 18.0533 4.6686 18.0281 4.40487 17.8365C4.14114 17.6449 4.00905 17.3202 4.06416 16.9989L4.99849 11.5513L1.0395 7.69526C0.806054 7.46788 0.7219 7.1277 0.822414 6.81771C0.922928 6.50771 1.19068 6.28163 1.51314 6.2345L6.98539 5.43465L9.43239 0.477296C9.57665 0.185029 9.87433 0 10.2003 0Z" fill="white"/>
</svg>
