<svg width="16" height="25" viewBox="0 0 16 25" fill="none" xmlns="http://www.w3.org/2000/svg">
<path d="M4.11158 21.6362C3.73769 21.3858 3.40357 21.0795 3.12879 20.7246C2.82256 20.3596 2.54482 19.9733 2.28487 19.5745C1.67894 18.6872 1.20594 17.7199 0.875379 16.6967C0.479533 15.5098 0.287842 14.3721 0.287842 13.2593C0.287842 12.0166 0.556685 10.9318 1.0825 10.0202C1.46885 9.3092 2.04689 8.71276 2.74244 8.29555C3.41603 7.87537 4.19823 7.64629 4.98933 7.63086C5.26766 7.63086 5.56737 7.67122 5.88547 7.74837C6.11395 7.81306 6.39229 7.91513 6.73235 8.04214C7.16499 8.2089 7.40297 8.31098 7.48369 8.33591C7.7371 8.42849 7.95016 8.46884 8.11751 8.46884C8.24452 8.46884 8.42375 8.42849 8.62731 8.36677C8.74185 8.32641 8.95787 8.25519 9.26707 8.12285C9.5733 8.01128 9.81425 7.91573 10.0059 7.84451C10.2997 7.75786 10.584 7.67774 10.8374 7.63739C11.1466 7.5911 11.4522 7.57567 11.746 7.6C12.3086 7.63739 12.822 7.75786 13.2825 7.93056C14.089 8.25519 14.7413 8.76202 15.2267 9.48249C15.0196 9.6095 14.8309 9.7543 14.6516 9.9181C14.2653 10.2582 13.9407 10.6599 13.6778 11.108C13.3377 11.7169 13.1644 12.4065 13.168 13.1015C13.1804 13.9579 13.4 14.7122 13.8326 15.3644C14.1418 15.8404 14.5496 16.2451 15.0475 16.5792C15.295 16.746 15.508 16.8605 15.7122 16.9377C15.6166 17.2344 15.5145 17.5217 15.3941 17.8065C15.1187 18.4463 14.7911 19.0582 14.4048 19.6362C14.0617 20.1341 13.7929 20.505 13.5887 20.7519C13.2706 21.1288 12.9644 21.4166 12.6552 21.6172C12.3151 21.8427 11.9134 21.9632 11.5051 21.9632C11.2267 21.9757 10.9519 21.9383 10.6861 21.8641C10.4576 21.7869 10.2315 21.7033 10.0089 21.6077C9.77686 21.5027 9.53888 21.4101 9.29496 21.3389C8.99229 21.2588 8.68309 21.2214 8.37389 21.2214C8.05579 21.2214 7.74659 21.2617 7.45579 21.3359C7.20832 21.4071 6.97033 21.4902 6.73532 21.5923C6.40476 21.7312 6.18517 21.8243 6.05817 21.8641C5.80476 21.9383 5.54185 21.9846 5.27597 22C4.8647 22 4.48131 21.8825 4.10149 21.6445L4.11158 21.6362ZM9.53591 7.02789C8.99823 7.29674 8.48487 7.41128 7.97508 7.37389C7.89496 6.86053 7.97508 6.33531 8.18814 5.76024C8.37686 5.26884 8.63027 4.82671 8.97924 4.43086C9.34066 4.01958 9.77686 3.67953 10.2683 3.43561C10.7905 3.16677 11.2884 3.02136 11.7644 3C11.8261 3.53769 11.7644 4.06647 11.5668 4.63798C11.3846 5.14481 11.1157 5.61187 10.7757 6.02908C10.4297 6.44036 10.003 6.78042 9.52048 7.0273L9.53591 7.02789Z" fill="white"/>
</svg>
