<svg width="19" height="16" viewBox="0 0 19 16" fill="none" xmlns="http://www.w3.org/2000/svg">
<g id="Vector">
<mask id="path-1-inside-1_3539_1634" fill="white">
<path d="M15.8 0.800049H3.2C2.48392 0.800049 1.79716 1.08451 1.29081 1.59086C0.784464 2.09721 0.5 2.78396 0.5 3.50005V12.5C0.5 13.2161 0.784464 13.9029 1.29081 14.4092C1.79716 14.9156 2.48392 15.2 3.2 15.2H15.8C16.5161 15.2 17.2028 14.9156 17.7092 14.4092C18.2155 13.9029 18.5 13.2161 18.5 12.5V3.50005C18.5 2.78396 18.2155 2.09721 17.7092 1.59086C17.2028 1.08451 16.5161 0.800049 15.8 0.800049ZM3.2 2.60005H15.8C16.0387 2.60005 16.2676 2.69487 16.4364 2.86365C16.6052 3.03244 16.7 3.26135 16.7 3.50005L9.5 7.89205L2.3 3.50005C2.3 3.26135 2.39482 3.03244 2.5636 2.86365C2.73239 2.69487 2.96131 2.60005 3.2 2.60005ZM16.7 12.5C16.7 12.7387 16.6052 12.9677 16.4364 13.1364C16.2676 13.3052 16.0387 13.4 15.8 13.4H3.2C2.96131 13.4 2.73239 13.3052 2.5636 13.1364C2.39482 12.9677 2.3 12.7387 2.3 12.5V5.55205L9.032 9.66505C9.16882 9.74404 9.32402 9.78563 9.482 9.78563C9.63998 9.78563 9.79518 9.74404 9.932 9.66505L16.7 5.55205V12.5Z"/>
</mask>
<path d="M15.8 0.800049H3.2C2.48392 0.800049 1.79716 1.08451 1.29081 1.59086C0.784464 2.09721 0.5 2.78396 0.5 3.50005V12.5C0.5 13.2161 0.784464 13.9029 1.29081 14.4092C1.79716 14.9156 2.48392 15.2 3.2 15.2H15.8C16.5161 15.2 17.2028 14.9156 17.7092 14.4092C18.2155 13.9029 18.5 13.2161 18.5 12.5V3.50005C18.5 2.78396 18.2155 2.09721 17.7092 1.59086C17.2028 1.08451 16.5161 0.800049 15.8 0.800049ZM3.2 2.60005H15.8C16.0387 2.60005 16.2676 2.69487 16.4364 2.86365C16.6052 3.03244 16.7 3.26135 16.7 3.50005L9.5 7.89205L2.3 3.50005C2.3 3.26135 2.39482 3.03244 2.5636 2.86365C2.73239 2.69487 2.96131 2.60005 3.2 2.60005ZM16.7 12.5C16.7 12.7387 16.6052 12.9677 16.4364 13.1364C16.2676 13.3052 16.0387 13.4 15.8 13.4H3.2C2.96131 13.4 2.73239 13.3052 2.5636 13.1364C2.39482 12.9677 2.3 12.7387 2.3 12.5V5.55205L9.032 9.66505C9.16882 9.74404 9.32402 9.78563 9.482 9.78563C9.63998 9.78563 9.79518 9.74404 9.932 9.66505L16.7 5.55205V12.5Z" fill="white"/>
<path d="M15.8 0.800049V-1.34152V0.800049ZM0.5 3.50005H-1.64157H0.5ZM0.5 12.5H-1.64157H0.5ZM3.2 15.2V17.3416V15.2ZM15.8 15.2V17.3416V15.2ZM18.5 12.5H20.6416H18.5ZM18.5 3.50005H20.6416H18.5ZM3.2 2.60005V4.74162V2.60005ZM16.4364 2.86365L14.9221 4.37797L16.4364 2.86365ZM16.7 3.50005L17.8152 5.32832L18.8416 4.70226V3.50005H16.7ZM9.5 7.89205L8.38476 9.72032L9.5 10.4006L10.6152 9.72032L9.5 7.89205ZM2.3 3.50005H0.158428V4.70226L1.18476 5.32832L2.3 3.50005ZM16.4364 13.1364L14.9221 11.6221L16.4364 13.1364ZM2.3 5.55205L3.41653 3.72456L0.158428 1.73399V5.55205H2.3ZM9.032 9.66505L7.91547 11.4925L7.93817 11.5064L7.96121 11.5197L9.032 9.66505ZM9.932 9.66505L11.0028 11.5197L11.0236 11.5077L11.0442 11.4952L9.932 9.66505ZM16.7 5.55205H18.8416V1.74457L15.5878 3.72192L16.7 5.55205ZM15.8 -1.34152H3.2V2.94162H15.8V-1.34152ZM3.2 -1.34152C1.91593 -1.34152 0.684462 -0.83143 -0.223509 0.0765404L2.80513 3.10518C2.90986 3.00046 3.0519 2.94162 3.2 2.94162V-1.34152ZM-0.223509 0.0765404C-1.13148 0.984511 -1.64157 2.21598 -1.64157 3.50005H2.64157C2.64157 3.35194 2.70041 3.20991 2.80513 3.10518L-0.223509 0.0765404ZM-1.64157 3.50005V12.5H2.64157V3.50005H-1.64157ZM-1.64157 12.5C-1.64157 13.7841 -1.13148 15.0156 -0.223509 15.9236L2.80513 12.8949C2.70041 12.7902 2.64157 12.6482 2.64157 12.5H-1.64157ZM-0.223509 15.9236C0.684463 16.8315 1.91594 17.3416 3.2 17.3416L3.2 13.0585C3.0519 13.0585 2.90986 12.9996 2.80513 12.8949L-0.223509 15.9236ZM3.2 17.3416H15.8V13.0585H3.2V17.3416ZM15.8 17.3416C17.0841 17.3416 18.3155 16.8315 19.2235 15.9236L16.1949 12.8949C16.0901 12.9996 15.9481 13.0585 15.8 13.0585V17.3416ZM19.2235 15.9236C20.1315 15.0156 20.6416 13.7841 20.6416 12.5H16.3584C16.3584 12.6482 16.2996 12.7902 16.1949 12.8949L19.2235 15.9236ZM20.6416 12.5V3.50005H16.3584V12.5H20.6416ZM20.6416 3.50005C20.6416 2.21598 20.1315 0.984512 19.2235 0.0765404L16.1949 3.10518C16.2996 3.20991 16.3584 3.35194 16.3584 3.50005H20.6416ZM19.2235 0.0765404C18.3155 -0.831431 17.0841 -1.34152 15.8 -1.34152V2.94162C15.9481 2.94162 16.0901 3.00046 16.1949 3.10518L19.2235 0.0765404ZM3.2 4.74162H15.8V0.458477H3.2V4.74162ZM15.8 4.74162C15.4707 4.74162 15.1549 4.61081 14.9221 4.37797L17.9507 1.34933C17.3803 0.778927 16.6067 0.458477 15.8 0.458477V4.74162ZM14.9221 4.37797C14.6892 4.14513 14.5584 3.82933 14.5584 3.50005H18.8416C18.8416 2.69338 18.5211 1.91974 17.9507 1.34933L14.9221 4.37797ZM15.5848 1.67178L8.38476 6.06378L10.6152 9.72032L17.8152 5.32832L15.5848 1.67178ZM10.6152 6.06378L3.41524 1.67178L1.18476 5.32832L8.38476 9.72032L10.6152 6.06378ZM4.44157 3.50005C4.44157 3.82934 4.31076 4.14513 4.07792 4.37797L1.04928 1.34933C0.478879 1.91974 0.158428 2.69337 0.158428 3.50005H4.44157ZM4.07792 4.37797C3.84509 4.61081 3.52929 4.74162 3.2 4.74162L3.2 0.458477C2.39332 0.458477 1.61969 0.778928 1.04928 1.34933L4.07792 4.37797ZM14.5584 12.5C14.5584 12.1708 14.6892 11.855 14.9221 11.6221L17.9507 14.6508C18.5211 14.0804 18.8416 13.3067 18.8416 12.5H14.5584ZM14.9221 11.6221C15.1549 11.3893 15.4707 11.2585 15.8 11.2585V15.5416C16.6067 15.5416 17.3803 15.2212 17.9507 14.6508L14.9221 11.6221ZM15.8 11.2585H3.2V15.5416H15.8V11.2585ZM3.2 11.2585C3.52928 11.2585 3.84508 11.3893 4.07792 11.6221L1.04928 14.6508C1.61969 15.2212 2.39333 15.5416 3.2 15.5416V11.2585ZM4.07792 11.6221C4.31076 11.855 4.44157 12.1708 4.44157 12.5H0.158428C0.158428 13.3067 0.478878 14.0804 1.04928 14.6508L4.07792 11.6221ZM4.44157 12.5V5.55205H0.158428V12.5H4.44157ZM1.18347 7.37953L7.91547 11.4925L10.1485 7.83756L3.41653 3.72456L1.18347 7.37953ZM7.96121 11.5197C8.42359 11.7867 8.9481 11.9272 9.482 11.9272V7.64405C9.69994 7.64405 9.91404 7.70142 10.1028 7.81039L7.96121 11.5197ZM9.482 11.9272C10.0159 11.9272 10.5404 11.7867 11.0028 11.5197L8.86121 7.81039C9.04996 7.70142 9.26406 7.64405 9.482 7.64405V11.9272ZM11.0442 11.4952L17.8122 7.38217L15.5878 3.72192L8.81981 7.83492L11.0442 11.4952ZM14.5584 5.55205V12.5H18.8416V5.55205H14.5584Z" fill="white" mask="url(#path-1-inside-1_3539_1634)"/>
</g>
</svg>
