<svg width="19" height="19" viewBox="0 0 19 19" fill="none" xmlns="http://www.w3.org/2000/svg">
<path d="M18.3249 7.73735H17.6V7.7H9.5V11.3H14.5864C13.8443 13.3956 11.8503 14.9 9.5 14.9C6.51785 14.9 4.1 12.4822 4.1 9.5C4.1 6.51785 6.51785 4.1 9.5 4.1C10.8765 4.1 12.1289 4.6193 13.0824 5.46755L15.6281 2.9219C14.0207 1.42385 11.8706 0.5 9.5 0.5C4.52975 0.5 0.5 4.52975 0.5 9.5C0.5 14.4703 4.52975 18.5 9.5 18.5C14.4703 18.5 18.5 14.4703 18.5 9.5C18.5 8.89655 18.4379 8.3075 18.3249 7.73735Z" fill="#FFC107"/>
<path d="M1.53757 5.31095L4.49452 7.4795C5.29462 5.4986 7.23245 4.1 9.5 4.1C10.8765 4.1 12.1289 4.6193 13.0824 5.46755L15.6281 2.9219C14.0207 1.42385 11.8706 0.5 9.5 0.5C6.0431 0.5 3.04507 2.45165 1.53757 5.31095Z" fill="#FF3D00"/>
<path d="M9.5 18.5C11.8247 18.5 13.9364 17.61 15.5335 16.1633L12.7479 13.8062C11.8443 14.4906 10.7218 14.9 9.5 14.9C7.1591 14.9 5.17085 13.407 4.42205 11.324L1.48715 13.5852C2.97665 16.4999 6.00215 18.5 9.5 18.5Z" fill="#4CAF50"/>
<path d="M18.3249 7.73735H17.6V7.7H9.5V11.3H14.5864C14.2299 12.3066 13.5824 13.1747 12.7472 13.8069C12.7477 13.8065 12.7475 13.8066 12.7479 13.8062L15.5335 16.1633C15.3363 16.3424 18.5 14 18.5 9.5C18.5 8.89655 18.4379 8.3075 18.3249 7.73735Z" fill="#1976D2"/>
</svg>
