<svg width="7" height="8" viewBox="0 0 7 8" fill="none" xmlns="http://www.w3.org/2000/svg">
<path fill-rule="evenodd" clip-rule="evenodd" d="M0.117157 4.51706C-0.0390525 4.67327 -0.0390525 4.92654 0.117157 5.08275L2.91716 7.88274C3.07337 8.03895 3.32663 8.03895 3.48284 7.88274L6.28284 5.08275C6.43905 4.92654 6.43905 4.67327 6.28284 4.51706C6.12663 4.36085 5.87337 4.36085 5.71716 4.51706L3.2 7.03422L0.682843 4.51706C0.526633 4.36085 0.273367 4.36085 0.117157 4.51706Z" fill="#FF5F58"/>
<path fill-rule="evenodd" clip-rule="evenodd" d="M3.1998 1.74846e-08C2.97889 7.8281e-09 2.7998 0.16203 2.7998 0.361905L2.7998 7.2381C2.7998 7.43797 2.97889 7.6 3.1998 7.6C3.42072 7.6 3.5998 7.43797 3.5998 7.2381L3.5998 0.361905C3.5998 0.16203 3.42072 2.7141e-08 3.1998 1.74846e-08Z" fill="#FF5F58"/>
</svg>
