<svg width="16" height="18" viewBox="0 0 16 18" fill="none" xmlns="http://www.w3.org/2000/svg">
<path fill-rule="evenodd" clip-rule="evenodd" d="M8 0C6.5148 0 5.09043 0.603503 4.04023 1.67775C2.99004 2.75199 2.40004 4.20898 2.40004 5.72818C2.40004 8.47171 1.82639 10.1754 1.29774 11.1668C1.0323 11.6646 0.773837 11.9911 0.594296 12.185C0.504316 12.2821 0.433609 12.3465 0.391037 12.3828C0.36974 12.401 0.355457 12.4121 0.349297 12.4168L0.347011 12.4185C0.0602255 12.6201 -0.0666849 12.9887 0.0343883 13.3301C0.136546 13.6753 0.447525 13.9113 0.800056 13.9113H15.1999C15.5525 13.9113 15.8635 13.6753 15.9656 13.3301C16.0667 12.9887 15.9398 12.6201 15.653 12.4185L15.6507 12.4168C15.6445 12.4121 15.6303 12.401 15.609 12.3828C15.5664 12.3465 15.4957 12.2821 15.4057 12.185C15.2262 11.9911 14.9677 11.6646 14.7023 11.1668C14.1736 10.1754 13.6 8.47171 13.6 5.72818C13.6 4.20898 13.01 2.75199 11.9598 1.67775C10.9096 0.603503 9.4852 0 8 0ZM13.4805 12.2747H2.5195C2.58037 12.1727 2.64148 12.0647 2.70236 11.9505C3.37369 10.6915 4.00003 8.71285 4.00003 5.72818C4.00003 4.64304 4.42146 3.60233 5.17159 2.83501C5.92173 2.0677 6.93914 1.63662 8 1.63662C9.06086 1.63662 10.0783 2.0677 10.8284 2.83501C11.5785 3.60233 12 4.64303 12 5.72818C12 8.71285 12.6263 10.6915 13.2976 11.9505C13.3585 12.0647 13.4196 12.1727 13.4805 12.2747ZM7.30802 15.9557C7.08632 15.5647 6.59679 15.4317 6.21461 15.6584C5.83243 15.8852 5.70233 16.386 5.92403 16.7769C6.135 17.1489 6.43781 17.4577 6.80215 17.6724C7.16649 17.887 7.57956 18 8.00001 18C8.42046 18 8.83354 17.887 9.19787 17.6724C9.56221 17.4577 9.86502 17.1489 10.076 16.7769C10.2977 16.386 10.1676 15.8852 9.78541 15.6584C9.40324 15.4317 8.9137 15.5647 8.69201 15.9557C8.62168 16.0797 8.52074 16.1826 8.3993 16.2542C8.27785 16.3257 8.14016 16.3634 8.00001 16.3634C7.85986 16.3634 7.72217 16.3257 7.60072 16.2542C7.47928 16.1826 7.37834 16.0797 7.30802 15.9557Z" fill="current"/>
</svg>
