<svg width="9" height="12" viewBox="0 0 9 12" fill="none" xmlns="http://www.w3.org/2000/svg">
<path fill-rule="evenodd" clip-rule="evenodd" d="M1.63911 1.41667C1.47253 1.41667 1.31278 1.48284 1.19499 1.60063C1.0772 1.71842 1.01103 1.87817 1.01103 2.04475V9.84548L4.08876 7.03599C4.24812 6.92216 4.4622 6.92216 4.62156 7.03599L7.6993 9.84548V2.04475C7.6993 1.87817 7.63312 1.71842 7.51534 1.60063C7.39755 1.48284 7.23779 1.41667 7.07121 1.41667H1.63911ZM0.546808 0.952448C0.836505 0.66275 1.22942 0.5 1.63911 0.5H7.07121C7.4809 0.5 7.87382 0.66275 8.16352 0.952448C8.45321 1.24214 8.61596 1.63506 8.61596 2.04475V10.7361C8.61596 10.9078 8.52001 11.0651 8.36736 11.1436C8.2147 11.2222 8.03094 11.2089 7.89123 11.1091L4.35516 7.9722L0.819094 11.1091C0.679388 11.2089 0.495626 11.2222 0.342969 11.1436C0.190311 11.0651 0.0943604 10.9078 0.0943604 10.7361V2.04475C0.0943604 1.63506 0.257111 1.24215 0.546808 0.952448Z" fill="#767C8F"/>
</svg>
