<svg width="10" height="10" viewBox="0 0 10 10" fill="none" xmlns="http://www.w3.org/2000/svg">
<path fill-rule="evenodd" clip-rule="evenodd" d="M9.02431 1.82431C9.25863 1.59 9.25863 1.2101 9.02431 0.975785C8.79 0.74147 8.4101 0.74147 8.17578 0.975785L5.00005 4.15152L1.82431 0.975785C1.59 0.74147 1.2101 0.74147 0.975785 0.975785C0.74147 1.2101 0.74147 1.59 0.975785 1.82431L4.15152 5.00005L0.975785 8.17578C0.74147 8.4101 0.74147 8.79 0.975785 9.02431C1.2101 9.25863 1.59 9.25863 1.82431 9.02431L5.00005 5.84858L8.17578 9.02431C8.4101 9.25863 8.79 9.25863 9.02431 9.02431C9.25863 8.79 9.25863 8.4101 9.02431 8.17578L5.84858 5.00005L9.02431 1.82431Z" fill="#767C8F"/>
</svg>
