<svg width="21" height="20" viewBox="0 0 21 20" fill="none" xmlns="http://www.w3.org/2000/svg">
<path fill-rule="evenodd" clip-rule="evenodd" d="M3.27478 2C3.00956 2 2.75521 2.10536 2.56767 2.29289C2.38014 2.48043 2.27478 2.73478 2.27478 3V16.5858L4.56767 14.2929C4.75521 14.1054 5.00956 14 5.27478 14H17.2748C17.54 14 17.7943 13.8946 17.9819 13.7071C18.1694 13.5196 18.2748 13.2652 18.2748 13V3C18.2748 2.73478 18.1694 2.48043 17.9819 2.29289C17.7943 2.10536 17.54 2 17.2748 2H3.27478ZM1.15346 0.87868C1.71607 0.31607 2.47913 0 3.27478 0H17.2748C18.0704 0 18.8335 0.31607 19.3961 0.87868C19.9587 1.44129 20.2748 2.20435 20.2748 3V13C20.2748 13.7957 19.9587 14.5587 19.3961 15.1213C18.8335 15.6839 18.0704 16 17.2748 16H5.68899L1.98189 19.7071C1.69589 19.9931 1.26577 20.0787 0.892097 19.9239C0.518422 19.7691 0.27478 19.4045 0.27478 19V3C0.27478 2.20435 0.590851 1.44129 1.15346 0.87868Z" fill="currentColor"/>
</svg>
