<svg width="10" height="10" viewBox="0 0 10 10" fill="none" xmlns="http://www.w3.org/2000/svg">
<path d="M4.82079 5.76041C4.25413 5.87708 3.91663 6.24374 3.91663 6.76458C3.91663 7.32291 4.37913 7.77291 4.95413 7.77291C5.80829 7.77291 6.49996 7.08124 6.49996 6.22708C6.49996 5.78124 6.43746 5.34374 6.30829 4.92708C5.97913 5.37291 5.39163 5.64374 4.82079 5.76041ZM5.62496 0.556244C5.62496 0.556244 5.93329 1.66041 5.93329 2.55624C5.93329 3.41458 5.37079 4.11041 4.51246 4.11041C3.64996 4.11041 2.99996 3.41458 2.99996 2.55624L3.01246 2.40624C2.17079 3.40624 1.66663 4.70208 1.66663 6.11041C1.66663 7.95208 3.15829 9.44374 4.99996 9.44374C6.84163 9.44374 8.33329 7.95208 8.33329 6.11041C8.33329 3.86458 7.25413 1.86041 5.62496 0.556244ZM4.99996 8.61041C3.62079 8.61041 2.49996 7.48958 2.49996 6.11041C2.49996 5.47291 2.62496 4.84374 2.85829 4.26458C3.27913 4.68541 3.86246 4.94374 4.51246 4.94374C5.62079 4.94374 6.49163 4.18124 6.71246 3.09791C7.22496 4.01458 7.49996 5.04374 7.49996 6.11041C7.49996 7.48958 6.37913 8.61041 4.99996 8.61041Z" fill="currentColor"/>
</svg>
