<svg xmlns="http://www.w3.org/2000/svg" width="12" height="10" viewBox="0 0 12 10" fill="none">
  <path fill-rule="evenodd" clip-rule="evenodd" d="M7.55655 0.244701C7.94644 0.0831504 8.36433 0 8.78637 0C9.2084 0 9.6263 0.0831505 10.0162 0.244701C10.406 0.406222 10.7602 0.64295 11.0585 0.941365C11.3569 1.23968 11.5938 1.59403 11.7553 1.98384C11.9169 2.37373 12 2.79163 12 3.21366C12 3.6357 11.9169 4.05359 11.7553 4.44348C11.5938 4.83333 11.357 5.18754 11.0586 5.48588C11.0586 5.48591 11.0586 5.48585 11.0586 5.48588L6.68923 9.85523C6.4962 10.0483 6.18325 10.0483 5.99022 9.85523L1.62087 5.48588C1.01824 4.88325 0.679688 4.06591 0.679688 3.21366C0.679688 2.36142 1.01824 1.54408 1.62087 0.941447C2.2235 0.338818 3.04084 0.000264323 3.89309 0.000264323C4.74533 0.000264323 5.56267 0.338818 6.1653 0.941447L6.33973 1.11587L6.51407 0.941529C6.51404 0.941556 6.5141 0.941502 6.51407 0.941529C6.8124 0.643076 7.1667 0.406237 7.55655 0.244701ZM8.78637 0.988542C8.49419 0.988542 8.20488 1.04611 7.93495 1.15795C7.66503 1.26979 7.41979 1.43372 7.21324 1.64037L6.68923 2.16438C6.4962 2.3574 6.18325 2.3574 5.99022 2.16438L5.4663 1.64045C5.04905 1.22321 4.48315 0.988806 3.89309 0.988806C3.30302 0.988806 2.73712 1.22321 2.31987 1.64045C1.90263 2.05769 1.66823 2.62359 1.66823 3.21366C1.66823 3.80373 1.90263 4.36963 2.31987 4.78687L6.33973 8.80673L10.3596 4.78687C10.5662 4.58032 10.7302 4.335 10.8421 4.06507C10.9539 3.79515 11.0115 3.50584 11.0115 3.21366C11.0115 2.92149 10.9539 2.63217 10.8421 2.36225C10.7302 2.09233 10.5663 1.84708 10.3597 1.64053C10.1531 1.43388 9.9077 1.26979 9.63778 1.15795C9.36786 1.04611 9.07854 0.988542 8.78637 0.988542Z" fill="currentColor"/>
</svg>