<svg xmlns="http://www.w3.org/2000/svg" width="24" height="20" viewBox="0 0 24 20" fill="none">
<path fill-rule="evenodd" clip-rule="evenodd" d="M14.3943 0.489402C15.1741 0.166301 16.0099 0 16.854 0C17.698 0 18.5338 0.166301 19.3136 0.489402C20.0933 0.812444 20.8016 1.2859 21.3982 1.88273C21.9951 2.47937 22.4689 3.18805 22.7919 3.96769C23.115 4.74746 23.2813 5.58326 23.2813 6.42732C23.2813 7.27139 23.115 8.10719 22.7919 8.88696C22.4688 9.66667 21.9953 10.3751 21.3984 10.9718L12.6597 19.7105C12.2737 20.0965 11.6477 20.0965 11.2617 19.7105L2.52299 10.9718C1.31773 9.7665 0.640625 8.13182 0.640625 6.42732C0.640625 4.72283 1.31773 3.08815 2.52299 1.88289C3.72825 0.677636 5.36293 0.000528645 7.06742 0.000528645C8.77191 0.000528645 10.4066 0.677636 11.6119 1.88289L11.9607 2.23174L12.3094 1.88306C12.9061 1.28615 13.6146 0.812474 14.3943 0.489402Z" fill="white"/>
</svg>