<svg xmlns="http://www.w3.org/2000/svg" width="48" height="48" viewBox="0 0 48 48" fill="none">
<g opacity="0.8">
<path d="M44.7945 12.5544C44.5569 11.6052 44.0731 10.7355 43.3918 10.0332C42.7106 9.33084 41.856 8.82072 40.9145 8.55436C37.4745 7.71436 23.7145 7.71436 23.7145 7.71436C23.7145 7.71436 9.95452 7.71436 6.51452 8.63436C5.57302 8.90072 4.71848 9.41084 4.03722 10.1132C3.35595 10.8155 2.8721 11.6852 2.63452 12.6344C2.00495 16.1255 1.69699 19.667 1.71452 23.2144C1.69208 26.7884 2.00006 30.357 2.63452 33.8744C2.89644 34.7941 3.39114 35.6306 4.07081 36.3033C4.75048 36.976 5.59216 37.462 6.51452 37.7144C9.95452 38.6344 23.7145 38.6344 23.7145 38.6344C23.7145 38.6344 37.4745 38.6344 40.9145 37.7144C41.856 37.448 42.7106 36.9379 43.3918 36.2355C44.0731 35.5332 44.5569 34.6635 44.7945 33.7144C45.4192 30.2495 45.7272 26.735 45.7145 23.2144C45.737 19.6403 45.429 16.0718 44.7945 12.5544Z" fill="#C2C7D6"/>
<path d="M17.9991 30.223L29.4991 23.683L17.9991 17.143L17.9991 30.223Z" stroke="#2A2C33" stroke-width="1.5" stroke-linecap="round" stroke-linejoin="round"/>
</g>
</svg>