<svg width="18" height="18" viewBox="0 0 25 24" fill="none" xmlns="http://www.w3.org/2000/svg">
<path d="M12.8087 20H21.8087" stroke="white" stroke-width="1.5" stroke-linecap="round" stroke-linejoin="round"/>
<path fill-rule="evenodd" clip-rule="evenodd" d="M18.8087 3.62866C18.445 3.62866 18.0962 3.77314 17.8391 4.03031L5.48595 16.3834L4.83951 18.9692L7.42529 18.3228L19.7784 5.96965C19.9057 5.84231 20.0068 5.69114 20.0757 5.52476C20.1446 5.35839 20.1801 5.18007 20.1801 4.99998C20.1801 4.8199 20.1446 4.64158 20.0757 4.4752C20.0068 4.30882 19.9057 4.15765 19.7784 4.03031C19.6511 3.90297 19.4999 3.80196 19.3335 3.73305C19.1671 3.66413 18.9888 3.62866 18.8087 3.62866ZM16.7784 2.96965C17.3169 2.43118 18.0472 2.12866 18.8087 2.12866C19.1858 2.12866 19.5592 2.20293 19.9075 2.34723C20.2559 2.49153 20.5724 2.70303 20.8391 2.96965C21.1057 3.23628 21.3172 3.55281 21.4615 3.90118C21.6058 4.24954 21.6801 4.62291 21.6801 4.99998C21.6801 5.37705 21.6058 5.75042 21.4615 6.09879C21.3172 6.44715 21.1057 6.76369 20.8391 7.03031L8.33906 19.5303C8.24294 19.6264 8.12251 19.6946 7.99063 19.7276L3.99063 20.7276C3.73505 20.7915 3.46469 20.7166 3.2784 20.5303C3.09212 20.344 3.01723 20.0737 3.08112 19.8181L4.08112 15.8181C4.11409 15.6862 4.18228 15.5658 4.2784 15.4697L16.7784 2.96965Z" fill="white"/>
</svg>
