<svg width="21" height="20" viewBox="0 0 21 20" fill="none" xmlns="http://www.w3.org/2000/svg">
<path fill-rule="evenodd" clip-rule="evenodd" d="M9.94141 2C6.07541 2 2.94141 5.13401 2.94141 9C2.94141 12.866 6.07541 16 9.94141 16C13.8074 16 16.9414 12.866 16.9414 9C16.9414 5.13401 13.8074 2 9.94141 2ZM0.941406 9C0.941406 4.02944 4.97084 0 9.94141 0C14.912 0 18.9414 4.02944 18.9414 9C18.9414 13.9706 14.912 18 9.94141 18C4.97084 18 0.941406 13.9706 0.941406 9Z" fill="currentColor"/>
<path fill-rule="evenodd" clip-rule="evenodd" d="M14.8843 13.9429C15.2748 13.5524 15.908 13.5524 16.2985 13.9429L20.6485 18.2929C21.0391 18.6834 21.0391 19.3166 20.6485 19.7071C20.258 20.0977 19.6248 20.0977 19.2343 19.7071L14.8843 15.3571C14.4938 14.9666 14.4938 14.3334 14.8843 13.9429Z" fill="currentColor"/>
</svg>