<svg xmlns="http://www.w3.org/2000/svg" width="11" height="12" viewBox="0 0 11 12" fill="none">
  <path d="M3.79492 6.755L7.20992 8.745M7.20492 3.255L3.79492 5.245M10 2.5C10 3.32843 9.32843 4 8.5 4C7.67157 4 7 3.32843 7 2.5C7 1.67157 7.67157 1 8.5 1C9.32843 1 10 1.67157 10 2.5ZM4 6C4 6.82843 3.32843 7.5 2.5 7.5C1.67157 7.5 1 6.82843 1 6C1 5.17157 1.67157 4.5 2.5 4.5C3.32843 4.5 4 5.17157 4 6ZM10 9.5C10 10.3284 9.32843 11 8.5 11C7.67157 11 7 10.3284 7 9.5C7 8.67157 7.67157 8 8.5 8C9.32843 8 10 8.67157 10 9.5Z" stroke="currentColor" stroke-linecap="round" stroke-linejoin="round"/>
</svg>