<svg width="24" height="24" viewBox="0 0 24 24" fill="none" xmlns="http://www.w3.org/2000/svg">
<path d="M12 0C5.38451 0 0 5.38451 0 12C0 18.6154 5.38451 23.9999 12 23.9999C18.6154 23.9999 23.9999 18.6154 23.9999 12C24.0018 11.8674 23.9773 11.7359 23.9279 11.6129C23.8785 11.4899 23.8051 11.378 23.7121 11.2837C23.619 11.1893 23.5081 11.1143 23.3859 11.0632C23.2636 11.0121 23.1324 10.9857 22.9999 10.9857C22.8674 10.9857 22.7362 11.0121 22.6139 11.0632C22.4917 11.1143 22.3808 11.1893 22.2877 11.2837C22.1947 11.378 22.1213 11.4899 22.0719 11.6129C22.0225 11.7359 21.998 11.8674 21.9999 12C21.9999 17.5345 17.5345 21.9999 12 21.9999C6.46544 21.9999 1.99999 17.5345 1.99999 12C1.99999 6.46544 6.46544 1.99999 12 1.99999C14.5119 1.99999 16.7904 2.93101 18.5448 4.45506L15.9999 6.99997H21.9999V0.999996L19.9609 3.03905C17.8404 1.15537 15.0538 0 12 0Z" fill="currentColor"/>
<path d="M9.82324 16H8.6709V11.4053C8.6709 11.2523 8.67253 11.0993 8.67578 10.9463C8.67904 10.7933 8.68229 10.6436 8.68555 10.4971C8.69206 10.3506 8.7002 10.2106 8.70996 10.0771C8.6416 10.152 8.55697 10.2334 8.45605 10.3213C8.3584 10.4092 8.25423 10.5003 8.14355 10.5947L7.32324 11.249L6.74707 10.5215L8.86621 8.86133H9.82324V16ZM14.7986 11.5371C15.2576 11.5371 15.6613 11.6201 16.0096 11.7861C16.3611 11.9489 16.6346 12.1898 16.8299 12.5088C17.0252 12.8245 17.1229 13.2119 17.1229 13.6709C17.1229 14.1722 17.0171 14.6051 16.8055 14.9697C16.5939 15.3311 16.283 15.6094 15.8729 15.8047C15.4627 16 14.963 16.0977 14.3738 16.0977C13.9995 16.0977 13.6495 16.0651 13.324 16C13.0018 15.9349 12.7234 15.8372 12.4891 15.707V14.6719C12.7332 14.8086 13.0262 14.9209 13.368 15.0088C13.7098 15.0934 14.0369 15.1357 14.3494 15.1357C14.6814 15.1357 14.9663 15.0869 15.2039 14.9893C15.4415 14.8916 15.6238 14.7419 15.7508 14.54C15.881 14.3382 15.9461 14.0827 15.9461 13.7734C15.9461 13.3633 15.8143 13.0475 15.5506 12.8262C15.2902 12.6016 14.8816 12.4893 14.325 12.4893C14.1297 12.4893 13.9214 12.5072 13.7 12.543C13.4819 12.5755 13.2996 12.6113 13.1531 12.6504L12.6502 12.3525L12.9187 8.86133H16.6297V9.87207H13.9295L13.7732 11.6494C13.8904 11.6234 14.0304 11.599 14.1932 11.5762C14.3559 11.5501 14.5577 11.5371 14.7986 11.5371Z" fill="currentColor"/>
</svg>
