<svg width="24" height="24" viewBox="0 0 24 24" fill="none" xmlns="http://www.w3.org/2000/svg">
<path d="M12 0C18.6155 0 24 5.38451 24 12C24 18.6154 18.6155 23.9999 12 23.9999C5.38461 23.9999 9.91821e-05 18.6154 9.91821e-05 12C-0.00177574 11.8674 0.022707 11.7359 0.0721207 11.6129C0.121534 11.4899 0.194893 11.378 0.287937 11.2837C0.380981 11.1893 0.491854 11.1143 0.614111 11.0632C0.736368 11.0121 0.867571 10.9857 1.0001 10.9857C1.13262 10.9857 1.26382 11.0121 1.38608 11.0632C1.50834 11.1143 1.61921 11.1893 1.71225 11.2837C1.8053 11.378 1.87866 11.4899 1.92807 11.6129C1.97748 11.7359 2.00197 11.8674 2.00009 12C2.00009 17.5345 6.46554 21.9999 12 21.9999C17.5346 21.9999 22 17.5345 22 12C22 6.46544 17.5346 1.99999 12 1.99999C9.48809 1.99999 7.20959 2.93101 5.45515 4.45506L8.00007 6.99997H2.00009V0.999996L4.03915 3.03905C6.15958 1.15537 8.94621 0 12 0Z" fill="currentColor"/>
<path d="M9.82324 16H8.6709V11.4053C8.6709 11.2523 8.67253 11.0993 8.67578 10.9463C8.67904 10.7933 8.68229 10.6436 8.68555 10.4971C8.69206 10.3506 8.7002 10.2106 8.70996 10.0771C8.6416 10.152 8.55697 10.2334 8.45605 10.3213C8.3584 10.4092 8.25423 10.5003 8.14355 10.5947L7.32324 11.249L6.74707 10.5215L8.86621 8.86133H9.82324V16ZM14.7986 11.5371C15.2576 11.5371 15.6613 11.6201 16.0096 11.7861C16.3611 11.9489 16.6346 12.1898 16.8299 12.5088C17.0252 12.8245 17.1229 13.2119 17.1229 13.6709C17.1229 14.1722 17.0171 14.6051 16.8055 14.9697C16.5939 15.3311 16.283 15.6094 15.8729 15.8047C15.4627 16 14.963 16.0977 14.3738 16.0977C13.9995 16.0977 13.6495 16.0651 13.324 16C13.0018 15.9349 12.7234 15.8372 12.4891 15.707V14.6719C12.7332 14.8086 13.0262 14.9209 13.368 15.0088C13.7098 15.0934 14.0369 15.1357 14.3494 15.1357C14.6814 15.1357 14.9663 15.0869 15.2039 14.9893C15.4415 14.8916 15.6238 14.7419 15.7508 14.54C15.881 14.3382 15.9461 14.0827 15.9461 13.7734C15.9461 13.3633 15.8143 13.0475 15.5506 12.8262C15.2902 12.6016 14.8816 12.4893 14.325 12.4893C14.1297 12.4893 13.9214 12.5072 13.7 12.543C13.4819 12.5755 13.2996 12.6113 13.1531 12.6504L12.6502 12.3525L12.9187 8.86133H16.6297V9.87207H13.9295L13.7732 11.6494C13.8904 11.6234 14.0304 11.599 14.1932 11.5762C14.3559 11.5501 14.5577 11.5371 14.7986 11.5371Z" fill="currentColor"/>
</svg>
