<svg width="20" height="18" viewBox="0 0 20 18" fill="none" xmlns="http://www.w3.org/2000/svg">
<path fill-rule="evenodd" clip-rule="evenodd" d="M9.99995 0C10.3259 0 10.6236 0.185029 10.7678 0.477296L13.2148 5.43465L18.6871 6.2345C19.0095 6.28163 19.2773 6.50771 19.3778 6.81771C19.4783 7.1277 19.3942 7.46788 19.1607 7.69526L15.2017 11.5513L16.1361 16.9989C16.1912 17.3202 16.0591 17.6449 15.7953 17.8365C15.5316 18.0281 15.182 18.0533 14.8935 17.9016L9.99995 15.3281L5.10642 17.9016C4.81791 18.0533 4.46828 18.0281 4.20455 17.8365C3.94082 17.6449 3.80874 17.3202 3.86384 16.9989L4.79817 11.5513L0.839187 7.69526C0.605737 7.46788 0.521583 7.1277 0.622097 6.81771C0.72261 6.50771 0.990367 6.28163 1.31283 6.2345L6.78507 5.43465L9.23207 0.477296C9.37634 0.185029 9.67401 0 9.99995 0Z" fill="#477FF7"/>
</svg>
