<svg width="24" height="22" viewBox="0 0 24 22" fill="none" xmlns="http://www.w3.org/2000/svg">
<path id="Icon" d="M18.8135 9.43959C16.9304 12.7029 15.0473 15.9661 13.1583 19.2294C12.7548 19.9312 12.9946 20.8318 13.7022 21.2353C14.404 21.6388 15.3046 21.3991 15.7081 20.6914C16.5093 19.3054 17.3047 17.9253 18.1059 16.5392C18.5094 15.8375 19.41 15.5918 20.1118 15.9954C20.8136 16.3989 21.0592 17.2995 20.6557 18.0013C20.0007 19.1358 19.3457 20.2704 18.6907 21.4107C19.6732 21.4107 21.8896 21.6213 22.8195 21.0891C23.9482 20.44 24.3342 19.0072 23.685 17.8785C22.0592 15.0655 20.4393 12.2467 18.8135 9.43374V9.43959ZM8.90673 20.6914C8.50321 21.3932 7.6026 21.6388 6.90082 21.2353C6.19904 20.8318 5.95342 19.9312 6.35694 19.2294C7.24001 17.6972 8.12308 16.165 9.012 14.6327C9.41552 13.931 9.17575 13.0304 8.46812 12.6268C7.76635 12.2233 6.86573 12.4631 6.46221 13.1707C4.88906 15.8901 3.32175 18.6153 1.7486 21.3347C0.742716 21.0657 0 20.1476 0 19.0539C0 18.5452 0.163749 18.0715 0.432764 17.6855C3.61416 12.1765 6.78385 6.67927 9.9594 1.17616C10.6085 0.047463 12.053 -0.332668 13.1759 0.316477C13.556 0.538707 13.8484 0.842807 14.0473 1.19954L17.1058 6.49797C14.3689 11.235 11.6203 15.9661 8.89504 20.6914H8.90673Z" fill="currentColor"/>
</svg>
