<svg width="30" height="30" viewBox="0 0 30 30" fill="none" xmlns="http://www.w3.org/2000/svg">
<path fill-rule="evenodd" clip-rule="evenodd" d="M3.29102 7.79429C3.29102 7.29683 3.69429 6.89355 4.19175 6.89355H25.8094C26.3069 6.89355 26.7101 7.29683 26.7101 7.79429C26.7101 8.29175 26.3069 8.69503 25.8094 8.69503H4.19175C3.69429 8.69503 3.29102 8.29175 3.29102 7.79429Z" fill="#767C8F"/>
<path fill-rule="evenodd" clip-rule="evenodd" d="M12.5988 3.89107C12.2006 3.89107 11.8188 4.04923 11.5372 4.33077C11.2557 4.6123 11.0975 4.99415 11.0975 5.3923V6.89352H18.9039V5.3923C18.9039 4.99415 18.7457 4.6123 18.4642 4.33077C18.1827 4.04923 17.8008 3.89107 17.4027 3.89107H12.5988ZM20.7054 6.89352V5.3923C20.7054 4.51637 20.3574 3.67631 19.738 3.05694C19.1187 2.43756 18.2786 2.0896 17.4027 2.0896H12.5988C11.7228 2.0896 10.8828 2.43756 10.2634 3.05694C9.64402 3.67631 9.29606 4.51637 9.29606 5.3923V6.89352H6.59385C6.09639 6.89352 5.69312 7.29679 5.69312 7.79426V24.608C5.69312 25.4839 6.04108 26.324 6.66045 26.9433C7.27983 27.5627 8.11988 27.9107 8.99581 27.9107H21.0056C21.8815 27.9107 22.7216 27.5627 23.341 26.9433C23.9604 26.324 24.3083 25.4839 24.3083 24.608V7.79426C24.3083 7.29679 23.905 6.89352 23.4076 6.89352H20.7054ZM7.49459 8.69499V24.608C7.49459 25.0061 7.65275 25.388 7.93428 25.6695C8.21582 25.951 8.59766 26.1092 8.99581 26.1092H21.0056C21.4038 26.1092 21.7856 25.951 22.0671 25.6695C22.3487 25.388 22.5068 25.0061 22.5068 24.608V8.69499H7.49459Z" fill="#767C8F"/>
<path fill-rule="evenodd" clip-rule="evenodd" d="M12.5987 12.8984C13.0962 12.8984 13.4995 13.3017 13.4995 13.7992V21.0051C13.4995 21.5025 13.0962 21.9058 12.5987 21.9058C12.1013 21.9058 11.698 21.5025 11.698 21.0051V13.7992C11.698 13.3017 12.1013 12.8984 12.5987 12.8984Z" fill="#767C8F"/>
<path fill-rule="evenodd" clip-rule="evenodd" d="M17.4027 12.8984C17.9002 12.8984 18.3034 13.3017 18.3034 13.7992V21.0051C18.3034 21.5025 17.9002 21.9058 17.4027 21.9058C16.9052 21.9058 16.502 21.5025 16.502 21.0051V13.7992C16.502 13.3017 16.9052 12.8984 17.4027 12.8984Z" fill="#767C8F"/>
</svg>
