<svg width="16" height="19" viewBox="0 0 16 19" fill="none" xmlns="http://www.w3.org/2000/svg">
<path fill-rule="evenodd" clip-rule="evenodd" d="M5.375 5.125C5.375 3.67525 6.55025 2.5 8 2.5C9.44975 2.5 10.625 3.67525 10.625 5.125C10.625 6.57475 9.44975 7.75 8 7.75C6.55025 7.75 5.375 6.57475 5.375 5.125ZM8 0.75C5.58375 0.75 3.625 2.70875 3.625 5.125C3.625 7.54125 5.58375 9.5 8 9.5C10.4162 9.5 12.375 7.54125 12.375 5.125C12.375 2.70875 10.4162 0.75 8 0.75ZM4.5 11.25C3.33968 11.25 2.22688 11.7109 1.40641 12.5314C0.585936 13.3519 0.125 14.4647 0.125 15.625V17.375C0.125 17.8582 0.516751 18.25 1 18.25C1.48325 18.25 1.875 17.8582 1.875 17.375V15.625C1.875 14.9288 2.15156 14.2611 2.64384 13.7688C3.13613 13.2766 3.80381 13 4.5 13H11.5C12.1962 13 12.8639 13.2766 13.3562 13.7688C13.8484 14.2611 14.125 14.9288 14.125 15.625V17.375C14.125 17.8582 14.5168 18.25 15 18.25C15.4832 18.25 15.875 17.8582 15.875 17.375V15.625C15.875 14.4647 15.4141 13.3519 14.5936 12.5314C13.7731 11.7109 12.6603 11.25 11.5 11.25H4.5Z" fill="current"/>
</svg>
